<svg xmlns="http://www.w3.org/2000/svg" width="1485.6823" height="410.1335" viewBox="0 0 1485.6823 410.1335"><defs><style>.cls-1,.cls-9{fill:#eef4fb;}.cls-1{stroke:#eef5fb;}.cls-1,.cls-10,.cls-11,.cls-13,.cls-14,.cls-16,.cls-3,.cls-4,.cls-6,.cls-7,.cls-8,.cls-9{stroke-miterlimit:10;}.cls-2,.cls-4{fill:#3553a4;}.cls-10,.cls-3,.cls-5{fill:#fff;}.cls-10,.cls-11,.cls-3,.cls-4,.cls-6,.cls-7,.cls-8,.cls-9{stroke:#3553a4;}.cls-11,.cls-14,.cls-16,.cls-6,.cls-7,.cls-8{fill:none;}.cls-7{stroke-dasharray:4.0039 4.0039;}.cls-8{stroke-dasharray:3.9866 3.9866;}.cls-10,.cls-11{fill-rule:evenodd;}.cls-12,.cls-15,.cls-19{font-size:14px;}.cls-12,.cls-13,.cls-17,.cls-18,.cls-19{fill:#010101;}.cls-12{font-family:IBMPlexSans-Italic, IBM Plex Sans;font-style:italic;}.cls-13,.cls-14{stroke:#1c75bc;}.cls-15,.cls-20{fill:#231f20;}.cls-15,.cls-19,.cls-20{font-family:IBMPlexSans, IBM Plex Sans;}.cls-16{stroke:#010101;}.cls-18,.cls-20{font-size:16px;}.cls-18{font-family:IBMPlexSans-SemiBold, IBM Plex Sans;font-weight:600;}.cls-21{letter-spacing:-0.007em;}.cls-22{letter-spacing:-0.005em;}.cls-23{letter-spacing:0em;}.cls-24{letter-spacing:-0.015em;}.cls-25{letter-spacing:-0.006em;}.cls-26{letter-spacing:-0.005em;}.cls-27{letter-spacing:0em;}</style></defs><g id="Background"><rect class="cls-1" x="414.4376" y="1.9667" width="1070.7447" height="360.3739"/><rect class="cls-2" x="408.3398" width="48" height="48"/><polygon class="cls-3" points="439.477 144.929 1125.188 146.115 1126.723 346.269 439.477 346.269 439.477 144.929"/><rect class="cls-2" x="439.4774" y="145.202" width="48" height="48"/><rect class="cls-4" x="514.8802" y="154.0539" width="2.5859" height="314.3405" transform="translate(926.3178 516.3945) rotate(180)"/><path class="cls-5" d="M531.134,127.5939h10.971v2.0355H531.134Zm0,5.0889H544.1v2.0355H531.134Z" transform="translate(-106.0286 -106.0539)"/><path class="cls-5" d="M551.0813,117.4161H527.1446a2.0154,2.0154,0,0,0-1.9947,2.0355v20.3556a2.0154,2.0154,0,0,0,1.9947,2.0356h23.9367a2.0155,2.0155,0,0,0,1.9947-2.0356V119.4516A2.0154,2.0154,0,0,0,551.0813,117.4161Zm0,2.0355v2.0356H527.1446v-2.0356Zm-23.9367,20.3556V123.5227h23.9367v16.2845Z" transform="translate(-106.0286 -106.0539)"/><polygon class="cls-5" points="482.695 214.327 786.985 214.131 786.946 261.984 482.656 262.179 482.695 214.327"/><polyline class="cls-6" points="482.693 216.327 482.695 214.327 484.695 214.325"/><line class="cls-7" x1="488.6987" y1="214.3228" x2="782.983" y2="214.1336"/><polyline class="cls-6" points="784.985 214.132 786.985 214.131 786.983 216.131"/><line class="cls-8" x1="786.98" y1="220.1176" x2="786.949" y2="257.9903"/><polyline class="cls-6" points="786.947 259.984 786.946 261.984 784.946 261.985"/><line class="cls-7" x1="780.9419" y1="261.9874" x2="486.6576" y2="262.1767"/><polyline class="cls-6" points="484.656 262.178 482.656 262.179 482.657 260.179"/><line class="cls-8" x1="482.6606" y1="256.1927" x2="482.6915" y2="218.32"/><rect class="cls-9" x="482.6445" y="214.3188" width="48" height="48"/><polygon class="cls-5" points="482.34 274.329 786.631 274.133 786.591 321.986 482.301 322.182 482.34 274.329"/><polyline class="cls-6" points="482.339 276.329 482.34 274.329 484.34 274.328"/><line class="cls-7" x1="488.3443" y1="274.3252" x2="782.6287" y2="274.1358"/><polyline class="cls-6" points="784.631 274.135 786.631 274.133 786.629 276.133"/><line class="cls-8" x1="786.6257" y1="280.1198" x2="786.5947" y2="317.9925"/><polyline class="cls-6" points="786.593 319.986 786.591 321.986 784.591 321.987"/><line class="cls-7" x1="780.5876" y1="321.9897" x2="486.3033" y2="322.179"/><polyline class="cls-6" points="484.301 322.18 482.301 322.182 482.303 320.182"/><line class="cls-8" x1="482.3062" y1="316.195" x2="482.3372" y2="278.3223"/><rect class="cls-9" x="482.2902" y="274.3211" width="48" height="48"/><polygon class="cls-5" points="801.668 212.648 1105.958 212.452 1105.919 260.305 801.629 260.5 801.668 212.648"/><polyline class="cls-6" points="801.666 214.648 801.668 212.648 803.668 212.647"/><line class="cls-7" x1="807.6718" y1="212.644" x2="1101.9562" y2="212.4546"/><polyline class="cls-6" points="1103.958 212.453 1105.958 212.452 1105.956 214.452"/><line class="cls-8" x1="1105.9532" y1="218.4386" x2="1105.9222" y2="256.3113"/><polyline class="cls-6" points="1105.921 258.305 1105.919 260.305 1103.919 260.306"/><line class="cls-7" x1="1099.9151" y1="260.3085" x2="805.6307" y2="260.4978"/><polyline class="cls-6" points="803.629 260.499 801.629 260.5 801.63 258.5"/><line class="cls-8" x1="801.6337" y1="254.5138" x2="801.6647" y2="216.6411"/><rect class="cls-9" x="801.6177" y="212.6399" width="48" height="48"/><polygon class="cls-5" points="801.668 273.618 1105.958 273.423 1105.919 321.275 801.629 321.471 801.668 273.618"/><polyline class="cls-6" points="801.666 275.618 801.668 273.618 803.668 273.617"/><line class="cls-7" x1="807.6718" y1="273.6145" x2="1101.9561" y2="273.4252"/><polyline class="cls-6" points="1103.958 273.424 1105.958 273.423 1105.956 275.423"/><line class="cls-8" x1="1105.9532" y1="279.4092" x2="1105.9222" y2="317.2818"/><polyline class="cls-6" points="1105.921 319.275 1105.919 321.275 1103.919 321.276"/><line class="cls-7" x1="1099.9151" y1="321.279" x2="805.6308" y2="321.4683"/><polyline class="cls-6" points="803.629 321.47 801.629 321.471 801.63 319.471"/><line class="cls-8" x1="801.6337" y1="315.4843" x2="801.6647" y2="277.6117"/><rect class="cls-9" x="801.6177" y="273.6104" width="48" height="48"/><path class="cls-2" d="M939.6462,390.6644h-16a2,2,0,0,0-2,2v22a2,2,0,0,0,2,2h16a2,2,0,0,0,2-2v-22A2,2,0,0,0,939.6462,390.6644Zm0,2v6h-16v-6Zm-16,14v-6h16v6Zm0,8v-6h16v6Z" transform="translate(-106.0286 -106.0539)"/><circle class="cls-2" cx="820.6177" cy="289.6104" r="1"/><circle class="cls-2" cx="820.6177" cy="297.6104" r="1"/><circle class="cls-2" cx="820.6177" cy="305.6104" r="1"/><path class="cls-2" d="M942.1455,342.9905a12.1326,12.1326,0,0,0-1.1791-4.3168l3.7179-1.35a11.9825,11.9825,0,0,0-1.0281-1.7382l-1.7431.635a11.9884,11.9884,0,0,0-21.71,7.9129l1.7477-.6412a12.1987,12.1987,0,0,0,.3309,1.9846l-3.7136,1.3552a12.1447,12.1447,0,0,0,1.8727,4.0617l1.9663-.7163.0026.0039a11.8861,11.8861,0,0,0,4.67,3.8909,12.013,12.013,0,0,0,15.9446-5.8042,11.8716,11.8716,0,0,0,1.08-5.992Zm-2.92,3.4966a7.7795,7.7795,0,0,1-12.6247,2.1616l-1.9846.7235a7.84,7.84,0,0,1-2.0742-3.99l.0009-.0008,3.7242-1.3565a7.818,7.818,0,0,1-.1232-2.0653l-1.7517.6362a7.7727,7.7727,0,0,1,11.0566-6.4626h.0067a7.7424,7.7424,0,0,1,2.2646,1.615l1.7442-.634a7.798,7.798,0,0,1,1.229,1.6558l-3.71,1.3595a7.8235,7.8235,0,0,1,.9766,4.3881l1.9685-.715a7.67,7.67,0,0,1-.703,2.6841Z" transform="translate(-106.0286 -106.0539)"/><rect class="cls-5" x="463.4774" y="180.2012" width="12" height="2"/><rect class="cls-5" x="463.4774" y="175.2012" width="12" height="2"/><rect class="cls-5" x="463.4774" y="170.2012" width="12" height="2"/><path class="cls-5" d="M565.506,285.2551h-4.5a7.4964,7.4964,0,0,1-1.3218-14.876,10,10,0,0,1,19.8218,1.876h-2a7.999,7.999,0,0,0-15.9507-.87l-.09.8335-.8363.0565a5.4962,5.4962,0,0,0,.377,10.98h4.5Z" transform="translate(-106.0286 -106.0539)"/><polyline class="cls-10" points="1145.728 63.969 1455.136 63.969 1455.136 115.884"/><polygon class="cls-3" points="1141.305 72.464 1446.539 72.747 1447.222 120.464 1141.305 120.464 1141.305 72.464"/><polyline class="cls-11" points="1142.805 67.969 1451.136 67.969 1451.136 118.215"/><rect class="cls-3" x="1140.8988" y="72.4645" width="48" height="48"/><path class="cls-2" d="M1261.7672,205.5184h-2v-2a3.0033,3.0033,0,0,1,3-3h5v2h-5a1.0011,1.0011,0,0,0-1,1Z" transform="translate(-106.0286 -106.0539)"/><path class="cls-2" d="M1265.7672,199.5184a4,4,0,1,1,4-4A4,4,0,0,1,1265.7672,199.5184Zm0-6a2,2,0,1,0,2,2A2,2,0,0,0,1265.7672,193.5184Z" transform="translate(-106.0286 -106.0539)"/><path class="cls-2" d="M1273.7672,206.5184a4,4,0,1,1,4-4A4,4,0,0,1,1273.7672,206.5184Zm0-6a2,2,0,1,0,2,2A2,2,0,0,0,1273.7672,200.5184Z" transform="translate(-106.0286 -106.0539)"/><path class="cls-2" d="M1279.7672,212.5184h-2v-2a1.0011,1.0011,0,0,0-1-1h-6a1.0011,1.0011,0,0,0-1,1v2h-2v-2a3.0033,3.0033,0,0,1,3-3h6a3.0033,3.0033,0,0,1,3,3Z" transform="translate(-106.0286 -106.0539)"/><path class="cls-2" d="M1261.7672,216.5184h-4a2.0021,2.0021,0,0,1-2-2v-24a2.002,2.002,0,0,1,2-2h4v2h-4v24h4Z" transform="translate(-106.0286 -106.0539)"/><path class="cls-2" d="M1281.7672,216.5184h-4v-2h4v-24h-4v-2h4a2.0021,2.0021,0,0,1,2,2v24A2.0021,2.0021,0,0,1,1281.7672,216.5184Z" transform="translate(-106.0286 -106.0539)"/><polygon class="cls-3" points="440.195 72.464 745.834 72.747 746.518 120.464 440.195 120.464 440.195 72.464"/><rect class="cls-3" x="439.7884" y="72.4645" width="48" height="48"/><rect class="cls-2" x="456.0554" y="96.3613" width="6.7107" height="0.9827"/><rect class="cls-2" x="456.0554" y="93.4132" width="6.7107" height="0.9827"/><path class="cls-2" d="M566.7522,211.7073H556.54V192.9448h24.51v9.3813h2.0425v-9.3813a1.9647,1.9647,0,0,0-2.0425-1.8762H556.54a1.9646,1.9646,0,0,0-2.0425,1.8762v18.7625a1.9646,1.9646,0,0,0,2.0425,1.8763h10.2123Z" transform="translate(-106.0286 -106.0539)"/><polygon class="cls-2" points="468.893 105.269 466.248 102.839 464.809 104.162 468.893 107.914 477.063 100.409 475.623 99.087 468.893 105.269"/><path class="cls-2" d="M565.4393,209.294l-3.4536-1.618a5.3463,5.3463,0,0,1-3.2571-4.7695v-6.3874a1.0584,1.0584,0,0,1,1.1185-.9827h11.1844a1.0584,1.0584,0,0,1,1.1185.9827v6.3874a5.3462,5.3462,0,0,1-3.2571,4.7694Zm-5.5922-12.7749v6.3874a4.3743,4.3743,0,0,0,2.665,3.9024l2.9272,1.3714,2.9272-1.3714a4.3743,4.3743,0,0,0,2.665-3.9024v-6.3874Z" transform="translate(-106.0286 -106.0539)"/><polygon class="cls-3" points="790.892 72.464 1096.312 72.747 1096.996 120.464 790.892 120.464 790.892 72.464"/><text class="cls-12" transform="translate(845.6426 100.1975)">Infrastructure - Ops access group</text><rect class="cls-3" x="790.4858" y="72.4645" width="48" height="48"/><path class="cls-2" d="M911.3541,205.5184h-2v-2a3.0033,3.0033,0,0,1,3-3h5v2h-5a1.0011,1.0011,0,0,0-1,1Z" transform="translate(-106.0286 -106.0539)"/><path class="cls-2" d="M915.3541,199.5184a4,4,0,1,1,4-4A4,4,0,0,1,915.3541,199.5184Zm0-6a2,2,0,1,0,2,2A2,2,0,0,0,915.3541,193.5184Z" transform="translate(-106.0286 -106.0539)"/><path class="cls-2" d="M923.3541,206.5184a4,4,0,1,1,4-4A4,4,0,0,1,923.3541,206.5184Zm0-6a2,2,0,1,0,2,2A2,2,0,0,0,923.3541,200.5184Z" transform="translate(-106.0286 -106.0539)"/><path class="cls-2" d="M929.3541,212.5184h-2v-2a1.0011,1.0011,0,0,0-1-1h-6a1.0011,1.0011,0,0,0-1,1v2h-2v-2a3.0033,3.0033,0,0,1,3-3h6a3.0033,3.0033,0,0,1,3,3Z" transform="translate(-106.0286 -106.0539)"/><path class="cls-2" d="M911.3541,216.5184h-4a2.0021,2.0021,0,0,1-2-2v-24a2.0021,2.0021,0,0,1,2-2h4v2h-4v24h4Z" transform="translate(-106.0286 -106.0539)"/><path class="cls-2" d="M931.3541,216.5184h-4v-2h4v-24h-4v-2h4a2.002,2.002,0,0,1,2,2v24A2.0021,2.0021,0,0,1,931.3541,216.5184Z" transform="translate(-106.0286 -106.0539)"/><g id="application--virtual"><rect class="cls-13" x="507.3393" y="243.6061" width="4" height="4"/><rect class="cls-13" x="501.3393" y="243.6061" width="4" height="4"/><rect class="cls-13" x="507.3393" y="249.6061" width="4" height="4"/><rect class="cls-13" x="501.3393" y="249.6061" width="4" height="4"/><path class="cls-13" d="M620.8679,355.66h-.5v-2h.5a5.4961,5.4961,0,0,0,.377-10.98l-.8365-.0566-.09-.834a7.9979,7.9979,0,0,0-15.9014,0l-.09.834-.8365.0566a5.4961,5.4961,0,0,0,.3774,10.98h.5v2h-.5a7.4964,7.4964,0,0,1-1.3218-14.876,9.9992,9.9992,0,0,1,19.6436,0,7.4964,7.4964,0,0,1-1.3218,14.876Z" transform="translate(-106.0286 -106.0539)"/><rect id="_Transparent_Rectangle_" data-name=" Transparent Rectangle " class="cls-14" x="490.3393" y="224.6061" width="32" height="32"/></g><g id="application--virtual-2" data-name="application--virtual"><rect class="cls-13" x="508.3387" y="305.0168" width="4" height="4"/><rect class="cls-13" x="502.3387" y="305.0168" width="4" height="4"/><rect class="cls-13" x="508.3387" y="311.0168" width="4" height="4"/><rect class="cls-13" x="502.3387" y="311.0168" width="4" height="4"/><path class="cls-13" d="M621.8673,417.0707h-.5v-2h.5a5.4961,5.4961,0,0,0,.377-10.9795l-.8365-.0566-.09-.834a7.9979,7.9979,0,0,0-15.9014,0l-.09.834-.8365.0566a5.4961,5.4961,0,0,0,.3774,10.9795h.5v2h-.5a7.4964,7.4964,0,0,1-1.3218-14.876,9.9992,9.9992,0,0,1,19.6436,0,7.4964,7.4964,0,0,1-1.3218,14.876Z" transform="translate(-106.0286 -106.0539)"/><rect id="_Transparent_Rectangle_2" data-name=" Transparent Rectangle " class="cls-14" x="491.3387" y="286.0168" width="32" height="32"/></g><text class="cls-15" transform="translate(100.3931 140.0278)">Application 1</text><text class="cls-15" transform="translate(100.3931 172.2817)">Application 2</text><text class="cls-15" transform="translate(100.3936 204.5353)">Application 3</text><text class="cls-15" transform="translate(100.3934 236.7884)">Application 4</text><line class="cls-16" x1="193.7827" y1="168.7795" x2="358.4897" y2="168.0536"/><line class="cls-16" x1="466.6967" y1="239.5883" x2="358.4897" y2="239.5883"/><polygon class="cls-17" points="465.238 234.602 473.872 239.588 465.238 244.574 465.238 234.602"/><line class="cls-16" x1="358.4897" y1="168.0536" x2="358.4897" y2="239.5883"/><line class="cls-16" x1="193.3876" y1="230.7257" x2="328.1012" y2="229.9997"/><line class="cls-16" x1="466.3017" y1="301.5388" x2="328.1012" y2="301.5388"/><polygon class="cls-17" points="464.843 296.553 473.477 301.538 464.843 306.525 464.843 296.553"/><line class="cls-16" x1="328.1012" y1="230.0041" x2="328.1012" y2="301.5388"/><path id="word--cloud" class="cls-17" d="M328.1884,390.6644H195.2723c-49.3689,0-89.2437-42.875-89.2437-95.9584s39.8748-95.9583,89.2437-95.9583a66.9191,66.9191,0,0,1,14.241,1.0209c15.19-20.4167,37.976-31.6459,61.7111-31.6459,40.8242,0,74.0532,32.6667,78.8,75.5417,28.4821,10.2083,48.4195,38.7917,48.4195,71.4583C398.4441,356.9769,367.1139,390.6644,328.1884,390.6644Zm-132.9161-183.75c-45.5713,0-81.6485,39.8125-81.6485,87.7916,0,49,37.0266,87.7917,81.6485,87.7917H328.1884c35.1279,0,62.6605-30.625,62.6605-67.375,0-29.6042-18.988-56.1458-45.5713-65.3333-.9494,0-1.8988-2.0417-2.8482-3.0625-3.7976-40.8334-34.1784-71.4584-72.1545-71.4584-22.7856,0-43.6724,11.2292-57.9134,30.625-.9494,1.0209-1.8988,2.0417-3.7976,1.0209Z" transform="translate(-106.0286 -106.0539)"/></g><g id="Text"><text class="cls-12" transform="translate(1196.0554 100.1252)">App 1 - Ops access group</text><text class="cls-12" transform="translate(494.9448 100.1252)">Infrastructure - trusted profile</text><text class="cls-18" transform="translate(464.7432 32.4123)">Production workload account</text><text class="cls-19" transform="translate(494.8999 176.1233)">Production infrastructure - workload VPC</text><text class="cls-19" transform="translate(855.0278 241.0464)">Red Hat OpenShift </text><text class="cls-19" transform="translate(855.0281 302.0168)">Databases</text><text class="cls-15" transform="translate(538.4876 242.5934)">Application 2</text><text class="cls-15" transform="translate(538.8375 300.6102)">Application 4</text><text class="cls-20" transform="translate(61.359 406.2137)">Exi<tspan class="cls-21" x="21.4395" y="0">s</tspan><tspan x="29.1201" y="0">ting cloud depl</tspan><tspan class="cls-22" x="135.2461" y="0">o</tspan><tspan class="cls-23" x="144.126" y="0">yment</tspan></text><text class="cls-20" transform="translate(425.1055 403.014)"><tspan class="cls-24">R</tspan><tspan x="10" y="0">e</tspan><tspan class="cls-25" x="18.7842" y="0">c</tspan><tspan x="26.7358" y="0">ommended depl</tspan><tspan class="cls-26" x="144.3179" y="0">o</tspan><tspan class="cls-27" x="153.1982" y="0">yment</tspan></text></g></svg>