<svg xmlns="http://www.w3.org/2000/svg" width="1113.5629" height="895.4422" viewBox="0 0 1113.5629 895.4422"><defs><style>.cls-1,.cls-12,.cls-13{fill:#fff;}.cls-1,.cls-2{stroke:#3553a4;}.cls-1,.cls-13,.cls-14,.cls-2,.cls-5,.cls-7{stroke-miterlimit:10;}.cls-2{fill:#eef4fb;}.cls-15,.cls-24,.cls-3,.cls-31,.cls-8{fill:#010101;}.cls-4,.cls-5{fill:none;}.cls-13,.cls-14,.cls-5,.cls-7{stroke:#6a7178;}.cls-6,.cls-7{fill:#6a7178;}.cls-8{font-size:14px;}.cls-15,.cls-8{font-family:IBMPlexSans-SemiBold, IBM Plex Sans;font-weight:600;}.cls-9{letter-spacing:-0.009em;}.cls-10{letter-spacing:-0.008em;}.cls-11{letter-spacing:-0.005em;}.cls-14{fill:#f2f4f8;}.cls-15,.cls-24,.cls-32{font-size:12px;}.cls-16{letter-spacing:-0.045em;}.cls-17{letter-spacing:-0.011em;}.cls-18{letter-spacing:-0.004em;}.cls-19{letter-spacing:-0.005em;}.cls-20{letter-spacing:-0.007em;}.cls-21{letter-spacing:-0.009em;}.cls-22{letter-spacing:-0.007em;}.cls-23{letter-spacing:-0.008em;}.cls-24,.cls-32{font-family:IBMPlexSans, IBM Plex Sans;}.cls-25{letter-spacing:-0.006em;}.cls-26{letter-spacing:-0.018em;}.cls-27{letter-spacing:-0.05em;}.cls-28{letter-spacing:-0.004em;}.cls-29{letter-spacing:-0.004em;}.cls-30{letter-spacing:0.003em;}.cls-31{font-size:18px;font-family:IBMPlexSans-SmBld, IBM Plex Sans;}.cls-32{fill:#231f20;}.cls-33{letter-spacing:-0.01em;}.cls-34{letter-spacing:0em;}.cls-35{letter-spacing:-0.015em;}.cls-36{letter-spacing:-0.005em;}</style></defs><g id="Background"><polygon class="cls-1" points="419.664 0.638 705.377 0.5 705.35 48.501 419.637 48.638 419.664 0.638"/><rect class="cls-2" x="419.5642" y="0.644" width="48" height="48"/><g id="decision-tree"><path class="cls-3" d="M711.2668,50.6957v-8h-8v3h-4a2.0024,2.0024,0,0,0-2,2v6h-6v-3h-8v8h8v-3h6v6a2.0023,2.0023,0,0,0,2,2h4v3h8v-8h-8v3h-4v-14h4v3Zm-22,6h-4v-4h4Zm16,4h4v4h-4Zm0-16h4v4h-4Z" transform="translate(-253.7026 -31.8336)"/><rect id="_Transparent_Rectangle_" data-name=" Transparent Rectangle " class="cls-4" x="427.5642" y="6.8622" width="32" height="32"/></g><line class="cls-5" x1="562.5069" y1="48.644" x2="562.5069" y2="90.9034"/><polygon class="cls-6" points="558.518 89.736 562.507 96.644 566.496 89.736 558.518 89.736"/><path class="cls-5" d="M840.21,152.4776h173.8168c8.727,0,15.8016,3.5817,15.8016,8V266.737" transform="translate(-253.7026 -31.8336)"/><polygon class="cls-6" points="772.137 233.736 776.125 240.644 780.114 233.736 772.137 233.736"/><path class="cls-5" d="M792.2093,152.4776H615.752c-8.8595,0-16.0416,3.5817-16.0416,8V266.737" transform="translate(-253.7026 -31.8336)"/><polygon class="cls-6" points="342.019 233.736 346.007 240.644 349.996 233.736 342.019 233.736"/><rect class="cls-7" x="799.2975" y="135.4456" width="33.8242" height="33.8242" rx="2" transform="translate(93.0928 -564.3564) rotate(45)"/><text class="cls-8" transform="translate(528.3542 163.0248)">H<tspan class="cls-9" x="10.0659" y="0">o</tspan><tspan x="17.8218" y="0">w ma</tspan><tspan class="cls-10" x="52.8486" y="0">n</tspan><tspan x="60.9688" y="0">y </tspan><tspan class="cls-11" x="-1.1416" y="18">r</tspan><tspan x="4.2905" y="18">esou</tspan><tspan class="cls-11" x="35.2021" y="18">rc</tspan><tspan x="47.7461" y="18">es?</tspan></text><path class="cls-12" d="M816.21,143.6077a8.75,8.75,0,1,0,8.75,8.75A8.75,8.75,0,0,0,816.21,143.6077Zm0,16.25a7.5,7.5,0,1,1,7.5-7.5A7.5,7.5,0,0,1,816.21,159.8577Z" transform="translate(-253.7026 -31.8336)"/><circle class="cls-12" cx="562.507" cy="125.2116" r="0.9375"/><path class="cls-12" d="M816.8347,147.3577h-.9375a2.8061,2.8061,0,0,0-2.8125,2.8v.325h1.25V150.17a1.5624,1.5624,0,0,1,1.5625-1.5625h.9375a1.5625,1.5625,0,0,1,0,3.125h-1.25v2.8125h1.25v-1.5625a2.8125,2.8125,0,0,0,0-5.625Z" transform="translate(-253.7026 -31.8336)"/><rect class="cls-4" x="552.507" y="110.5241" width="20" height="20"/><rect class="cls-13" x="467.5642" y="112.644" width="38.9428" height="16.6301" rx="8"/><rect class="cls-13" x="618.507" y="112.644" width="38.5559" height="16" rx="8"/><path class="cls-5" d="M623.7106,308.2691h88a8,8,0,0,1,8,8v106.26" transform="translate(-253.7026 -31.8336)"/><polygon class="cls-6" points="462.019 389.528 466.008 396.436 469.997 389.528 462.019 389.528"/><path class="cls-5" d="M575.7106,308.2691h-88a8,8,0,0,0-8,8v106.26" transform="translate(-253.7026 -31.8336)"/><polygon class="cls-6" points="222.019 389.528 226.008 396.436 229.997 389.528 222.019 389.528"/><rect class="cls-7" x="582.7985" y="291.2371" width="33.8242" height="33.8242" rx="2" transform="translate(139.8429 -365.6382) rotate(45)"/><path class="cls-12" d="M599.7106,299.3992a8.75,8.75,0,1,0,8.75,8.75A8.75,8.75,0,0,0,599.7106,299.3992Zm0,16.25a7.5,7.5,0,1,1,7.5-7.5A7.5,7.5,0,0,1,599.7106,315.6492Z" transform="translate(-253.7026 -31.8336)"/><circle class="cls-12" cx="346.008" cy="281.0031" r="0.9375"/><path class="cls-12" d="M600.3356,303.1492h-.9375a2.8064,2.8064,0,0,0-2.8125,2.8v.325h1.25v-.3125a1.5626,1.5626,0,0,1,1.5625-1.5625h.9375a1.5625,1.5625,0,0,1,0,3.125h-1.25v2.8125h1.25v-1.5625a2.8125,2.8125,0,0,0,0-5.625Z" transform="translate(-253.7026 -31.8336)"/><rect class="cls-4" x="336.008" y="266.3156" width="20" height="20"/><path class="cls-5" d="M1054.7655,307.5385h88a8,8,0,0,1,8,8V421.7979" transform="translate(-253.7026 -31.8336)"/><polygon class="cls-6" points="893.074 388.797 897.063 395.705 901.052 388.797 893.074 388.797"/><path class="cls-5" d="M1006.7656,307.5385h-88a8,8,0,0,0-8,8V421.7979" transform="translate(-253.7026 -31.8336)"/><polygon class="cls-6" points="653.074 388.797 657.063 395.705 661.052 388.797 653.074 388.797"/><rect class="cls-7" x="1013.8534" y="290.5064" width="33.8242" height="33.8242" rx="2" transform="translate(265.5793 -670.6541) rotate(45)"/><path class="cls-12" d="M1030.7656,298.6685a8.75,8.75,0,1,0,8.75,8.75A8.75,8.75,0,0,0,1030.7656,298.6685Zm0,16.25a7.5,7.5,0,1,1,7.5-7.5A7.5,7.5,0,0,1,1030.7656,314.9185Z" transform="translate(-253.7026 -31.8336)"/><circle class="cls-12" cx="777.0629" cy="280.2724" r="0.9375"/><path class="cls-12" d="M1031.3906,302.4185h-.9375a2.8063,2.8063,0,0,0-2.8125,2.8v.325h1.25v-.3125a1.5625,1.5625,0,0,1,1.5625-1.5625h.9375a1.5625,1.5625,0,0,1,0,3.125h-1.25v2.8125h1.25v-1.5625a2.8125,2.8125,0,0,0,0-5.625Z" transform="translate(-253.7026 -31.8336)"/><rect class="cls-4" x="767.0629" y="265.5849" width="20" height="20"/><rect class="cls-13" x="689.0629" y="267.7048" width="32" height="16" rx="8"/><rect class="cls-13" x="833.0629" y="267.7048" width="32" height="16" rx="8"/><rect class="cls-13" x="258.008" y="268.4355" width="32" height="16" rx="8"/><rect class="cls-13" x="402.008" y="268.4355" width="32" height="16" rx="8"/><rect class="cls-14" x="361.6269" y="401.9381" width="192" height="48"/><rect class="cls-7" x="361.6269" y="446.9381" width="191.9998" height="3"/><rect class="cls-14" x="567.5069" y="401.9382" width="192" height="48"/><rect class="cls-7" x="567.5069" y="446.9382" width="191.9998" height="3"/><path class="cls-3" d="M638.2731,449.0219a6.1247,6.1247,0,0,0-3.375,1l4,4a1.3125,1.3125,0,0,1,.1466,1.85l-.0216.0247a1.3125,1.3125,0,0,1-1.8534-.1l-.0216-.0246-4.125-4a6.15,6.15,0,0,0-1.0625,3.5625,6.3375,6.3375,0,0,0,6.3125,6.3125,6.8146,6.8146,0,0,0,1.625-.1875l4.1875,4.1875a3.1378,3.1378,0,0,0,4.4375-4.4375l-4.1875-4.1875a6.8146,6.8146,0,0,0,.1875-1.625,6.25,6.25,0,0,0-6.1237-6.3738Q638.3363,449.0219,638.2731,449.0219Zm5,6.3125a4.7545,4.7545,0,0,1-.1875,1.3125l-.1875.6875.5.5,4.1875,4.1875a1.8,1.8,0,0,1,.5625,1.3125,1.7,1.7,0,0,1-.5625,1.3125,1.8125,1.8125,0,0,1-2.5625.0625q-.0319-.03-.0625-.0625l-4.1875-4.1875-.5-.5-.6875.1875a4.7583,4.7583,0,0,1-1.3125.1875,5.169,5.169,0,0,1-3.5625-1.4375,4.7688,4.7688,0,0,1-1.5-3.5625,5.2065,5.2065,0,0,1,.1875-1.375l2.75,2.75a2.5875,2.5875,0,0,0,3.656.1544l.0315-.0294a2.5875,2.5875,0,0,0-.0935-3.6581l-.0315-.0294-2.75-2.75a4.03,4.03,0,0,1,1.25-.1875,5.1685,5.1685,0,0,1,3.5625,1.4375A5.3061,5.3061,0,0,1,643.2731,455.3344Z" transform="translate(-253.7026 -31.8336)"/><rect id="_Transparent_Rectangle_2" data-name=" Transparent Rectangle " class="cls-4" x="377.008" y="415.9383" width="20" height="20"/><path class="cls-3" d="M844.2078,448.51a6.1247,6.1247,0,0,0-3.375,1l4,4a1.3124,1.3124,0,0,1,.1465,1.85l-.0215.0247a1.3126,1.3126,0,0,1-1.8535-.1l-.0215-.0246-4.125-4a6.1492,6.1492,0,0,0-1.0625,3.5625,6.3376,6.3376,0,0,0,6.3125,6.3125,6.82,6.82,0,0,0,1.625-.1875l4.1875,4.1875a3.1378,3.1378,0,0,0,4.4375-4.4375L850.27,456.51a6.8146,6.8146,0,0,0,.1875-1.625,6.25,6.25,0,0,0-6.1238-6.3738C844.2919,448.51,844.25,448.51,844.2078,448.51Zm5,6.3125a4.7621,4.7621,0,0,1-.1875,1.3125l-.1875.6875.5.5L853.52,461.51a1.8,1.8,0,0,1,.5625,1.3125,1.7005,1.7005,0,0,1-.5625,1.3125,1.8126,1.8126,0,0,1-2.5625.0625q-.0321-.0306-.0625-.0625l-4.1875-4.1875-.5-.5-.6875.1875a4.7621,4.7621,0,0,1-1.3125.1875,5.169,5.169,0,0,1-3.5625-1.4375,4.7686,4.7686,0,0,1-1.5-3.5625,5.2024,5.2024,0,0,1,.1875-1.375l2.75,2.75a2.5875,2.5875,0,0,0,3.656.1544l.0315-.0294a2.5875,2.5875,0,0,0-.0936-3.6581l-.0314-.0294-2.75-2.75a4.0267,4.0267,0,0,1,1.25-.1875,5.1684,5.1684,0,0,1,3.5625,1.4375A5.3061,5.3061,0,0,1,849.2078,454.8225Z" transform="translate(-253.7026 -31.8336)"/><rect id="_Transparent_Rectangle_3" data-name=" Transparent Rectangle " class="cls-4" x="582.9426" y="415.4264" width="20" height="20"/><path class="cls-5" d="M503.7106,456.9806h88a8,8,0,0,1,8,8V571.24" transform="translate(-253.7026 -31.8336)"/><polygon class="cls-6" points="342.019 538.239 346.008 545.147 349.997 538.239 342.019 538.239"/><path class="cls-5" d="M455.7106,456.9806h-88a8,8,0,0,0-8,8V571.24" transform="translate(-253.7026 -31.8336)"/><polygon class="cls-6" points="102.019 538.239 106.008 545.147 109.997 538.239 102.019 538.239"/><rect class="cls-7" x="462.7985" y="439.9486" width="33.8242" height="33.8242" rx="2" transform="translate(209.8507 -237.2288) rotate(45)"/><path class="cls-12" d="M479.7106,448.1107a8.75,8.75,0,1,0,8.75,8.75A8.75,8.75,0,0,0,479.7106,448.1107Zm0,16.25a7.5,7.5,0,1,1,7.5-7.5A7.5,7.5,0,0,1,479.7106,464.3607Z" transform="translate(-253.7026 -31.8336)"/><circle class="cls-12" cx="226.008" cy="429.7146" r="0.9375"/><path class="cls-12" d="M480.3356,451.8607h-.9375a2.8063,2.8063,0,0,0-2.8125,2.8v.325h1.25v-.3125a1.5626,1.5626,0,0,1,1.5625-1.5625h.9375a1.5625,1.5625,0,0,1,0,3.125h-1.25v2.8125h1.25v-1.5625a2.8125,2.8125,0,0,0,0-5.625Z" transform="translate(-253.7026 -31.8336)"/><rect class="cls-4" x="216.008" y="415.0271" width="20" height="20"/><rect class="cls-13" x="138.008" y="417.147" width="32" height="16" rx="8"/><rect class="cls-13" x="282.008" y="417.147" width="32" height="16" rx="8"/><path class="cls-5" d="M1174.7655,456.9806h88a8,8,0,0,1,8,8V571.24" transform="translate(-253.7026 -31.8336)"/><polygon class="cls-6" points="1013.074 538.239 1017.063 545.147 1021.052 538.239 1013.074 538.239"/><path class="cls-5" d="M1126.7656,456.9806h-88a8,8,0,0,0-8,8V571.24" transform="translate(-253.7026 -31.8336)"/><polygon class="cls-6" points="773.074 538.239 777.063 545.147 781.052 538.239 773.074 538.239"/><rect class="cls-7" x="1133.8534" y="439.9486" width="33.8242" height="33.8242" rx="2" transform="translate(406.3981 -711.7363) rotate(45)"/><path class="cls-12" d="M1150.7656,448.1107a8.75,8.75,0,1,0,8.75,8.75A8.75,8.75,0,0,0,1150.7656,448.1107Zm0,16.25a7.5,7.5,0,1,1,7.5-7.5A7.5,7.5,0,0,1,1150.7656,464.3607Z" transform="translate(-253.7026 -31.8336)"/><circle class="cls-12" cx="897.0629" cy="429.7146" r="0.9375"/><path class="cls-12" d="M1151.3906,451.8607h-.9375a2.8061,2.8061,0,0,0-2.8125,2.8v.325h1.25v-.3125a1.5625,1.5625,0,0,1,1.5625-1.5625h.9375a1.5625,1.5625,0,0,1,0,3.125h-1.25v2.8125h1.25v-1.5625a2.8125,2.8125,0,0,0,0-5.625Z" transform="translate(-253.7026 -31.8336)"/><rect class="cls-4" x="887.0629" y="415.0271" width="20" height="20"/><rect class="cls-13" x="809.0629" y="417.147" width="32" height="16" rx="8"/><rect class="cls-13" x="953.0629" y="417.147" width="32" height="16" rx="8"/><rect class="cls-14" x="0.5" y="549.9209" width="192" height="48"/><rect class="cls-7" x="0.5" y="594.9208" width="191.9998" height="3"/><path class="cls-3" d="M277.1462,597.0046a6.1263,6.1263,0,0,0-3.375,1l4,4a1.3126,1.3126,0,0,1,.1465,1.85l-.0215.0246a1.3126,1.3126,0,0,1-1.8535-.1l-.0215-.0247-4.125-4a6.15,6.15,0,0,0-1.0625,3.5625,6.3375,6.3375,0,0,0,6.3125,6.3125,6.81,6.81,0,0,0,1.625-.1875l4.1875,4.1875a3.1378,3.1378,0,0,0,4.4375-4.4375l-4.1875-4.1875a6.8134,6.8134,0,0,0,.1875-1.625,6.25,6.25,0,0,0-6.1238-6.3737Q277.2094,597.0046,277.1462,597.0046Zm5,6.3125a4.7583,4.7583,0,0,1-.1875,1.3125l-.1875.6875.5.5,4.1875,4.1875a1.8,1.8,0,0,1,.5625,1.3125,1.7,1.7,0,0,1-.5625,1.3125,1.8124,1.8124,0,0,1-2.5625.0625q-.0321-.03-.0625-.0625l-4.1875-4.1875-.5-.5-.6875.1875a4.7545,4.7545,0,0,1-1.3125.1875,5.1685,5.1685,0,0,1-3.5625-1.4375,4.7683,4.7683,0,0,1-1.5-3.5625,5.2035,5.2035,0,0,1,.1875-1.375l2.75,2.75a2.5874,2.5874,0,0,0,3.656.1545l.0315-.0295a2.5875,2.5875,0,0,0-.0935-3.658l-.0315-.0295-2.75-2.75a4.0326,4.0326,0,0,1,1.25-.1875,5.169,5.169,0,0,1,3.5625,1.4375A5.3065,5.3065,0,0,1,282.1462,603.3171Z" transform="translate(-253.7026 -31.8336)"/><rect id="_Transparent_Rectangle_4" data-name=" Transparent Rectangle " class="cls-4" x="15.881" y="563.921" width="20" height="20"/><rect class="cls-14" x="249.5102" y="549.9431" width="192" height="48"/><rect class="cls-7" x="249.5102" y="594.943" width="191.9998" height="3"/><path class="cls-3" d="M526.1563,597.0268a6.1257,6.1257,0,0,0-3.375,1l4,4a1.3125,1.3125,0,0,1,.1466,1.85l-.0216.0246a1.3125,1.3125,0,0,1-1.8534-.1l-.0216-.0247-4.125-4a6.15,6.15,0,0,0-1.0625,3.5625,6.3375,6.3375,0,0,0,6.3125,6.3125,6.8083,6.8083,0,0,0,1.625-.1875l4.1875,4.1875a3.1378,3.1378,0,0,0,4.4375-4.4375l-4.1875-4.1875a6.8083,6.8083,0,0,0,.1875-1.625,6.25,6.25,0,0,0-6.1237-6.3737Q526.2195,597.0268,526.1563,597.0268Zm5,6.3125a4.7545,4.7545,0,0,1-.1875,1.3125l-.1875.6875.5.5,4.1875,4.1875a1.8,1.8,0,0,1,.5625,1.3125,1.7,1.7,0,0,1-.5625,1.3125,1.8124,1.8124,0,0,1-2.5625.0625q-.0319-.03-.0625-.0625l-4.1875-4.1875-.5-.5-.6875.1875a4.7545,4.7545,0,0,1-1.3125.1875,5.1689,5.1689,0,0,1-3.5625-1.4375,4.7691,4.7691,0,0,1-1.5-3.5625,5.2112,5.2112,0,0,1,.1875-1.375l2.75,2.75a2.5875,2.5875,0,0,0,3.6561.1544l.0314-.0294a2.5874,2.5874,0,0,0-.0935-3.6581l-.0315-.0294-2.75-2.75a4.033,4.033,0,0,1,1.25-.1875,5.169,5.169,0,0,1,3.5625,1.4375A5.3065,5.3065,0,0,1,531.1563,603.3393Z" transform="translate(-253.7026 -31.8336)"/><rect id="_Transparent_Rectangle_5" data-name=" Transparent Rectangle " class="cls-4" x="264.8912" y="563.9432" width="20" height="20"/><rect class="cls-14" x="802.0004" y="698.9323" width="192" height="48"/><rect class="cls-7" x="802.0004" y="743.9323" width="191.9998" height="3"/><path class="cls-3" d="M1078.6466,746.0161a6.1247,6.1247,0,0,0-3.375,1l4,4a1.3125,1.3125,0,0,1,.1466,1.85l-.0216.0247a1.3125,1.3125,0,0,1-1.8534-.1l-.0216-.0246-4.125-4a6.15,6.15,0,0,0-1.0625,3.5625,6.3375,6.3375,0,0,0,6.3125,6.3125,6.82,6.82,0,0,0,1.625-.1875l4.1875,4.1875a3.1378,3.1378,0,0,0,4.4375-4.4375l-4.1875-4.1875a6.8146,6.8146,0,0,0,.1875-1.625,6.25,6.25,0,0,0-6.1237-6.3738C1078.7308,746.0165,1078.6887,746.016,1078.6466,746.0161Zm5,6.3125a4.7545,4.7545,0,0,1-.1875,1.3125l-.1875.6875.5.5,4.1875,4.1875a1.8,1.8,0,0,1,.5625,1.3125,1.7,1.7,0,0,1-.5625,1.3125,1.8126,1.8126,0,0,1-2.5625.0625q-.032-.0306-.0625-.0625l-4.1875-4.1875-.5-.5-.6875.1875a4.7621,4.7621,0,0,1-1.3125.1875,5.169,5.169,0,0,1-3.5625-1.4375,4.769,4.769,0,0,1-1.5-3.5625,5.2065,5.2065,0,0,1,.1875-1.375l2.75,2.75a2.5875,2.5875,0,0,0,3.656.1544l.0315-.0294a2.5875,2.5875,0,0,0-.0935-3.6581l-.0315-.0294-2.75-2.75a4.0271,4.0271,0,0,1,1.25-.1875,5.1681,5.1681,0,0,1,3.5625,1.4375A5.3061,5.3061,0,0,1,1083.6466,752.3286Z" transform="translate(-253.7026 -31.8336)"/><rect id="_Transparent_Rectangle_6" data-name=" Transparent Rectangle " class="cls-4" x="817.3815" y="712.9325" width="20" height="20"/><rect class="cls-14" x="921.0629" y="551.08" width="192" height="48"/><rect class="cls-7" x="921.0629" y="596.08" width="191.9998" height="3"/><path class="cls-3" d="M1197.7091,598.1638a6.1247,6.1247,0,0,0-3.375,1l4,4a1.3124,1.3124,0,0,1,.1465,1.85l-.0215.0247a1.3126,1.3126,0,0,1-1.8535-.1l-.0215-.0246-4.125-4a6.15,6.15,0,0,0-1.0625,3.5625,6.3375,6.3375,0,0,0,6.3125,6.3125,6.8146,6.8146,0,0,0,1.625-.1875l4.1875,4.1875a3.1378,3.1378,0,0,0,4.4375-4.4375l-4.1875-4.1875a6.8146,6.8146,0,0,0,.1875-1.625,6.25,6.25,0,0,0-6.1238-6.3738Q1197.7723,598.1638,1197.7091,598.1638Zm5,6.3125a4.7545,4.7545,0,0,1-.1875,1.3125l-.1875.6875.5.5,4.1875,4.1875a1.8,1.8,0,0,1,.5625,1.3125,1.7005,1.7005,0,0,1-.5625,1.3125,1.8126,1.8126,0,0,1-2.5625.0625q-.0321-.0306-.0625-.0625l-4.1875-4.1875-.5-.5-.6875.1875a4.7621,4.7621,0,0,1-1.3125.1875,5.169,5.169,0,0,1-3.5625-1.4375,4.7685,4.7685,0,0,1-1.5-3.5625,5.2024,5.2024,0,0,1,.1875-1.375l2.75,2.75a2.5875,2.5875,0,0,0,3.656.1544l.0315-.0294a2.5876,2.5876,0,0,0-.0935-3.6581l-.0315-.0294-2.75-2.75a4.0271,4.0271,0,0,1,1.25-.1875,5.1681,5.1681,0,0,1,3.5625,1.4375A5.3061,5.3061,0,0,1,1202.7091,604.4763Z" transform="translate(-253.7026 -31.8336)"/><rect id="_Transparent_Rectangle_7" data-name=" Transparent Rectangle " class="cls-4" x="936.4439" y="565.0802" width="20" height="20"/><path class="cls-5" d="M1055.7031,605.694h88a8,8,0,0,1,8,8V719.9534" transform="translate(-253.7026 -31.8336)"/><polygon class="cls-6" points="894.012 686.953 898 693.86 901.989 686.953 894.012 686.953"/><path class="cls-5" d="M1007.7031,605.694h-88a8,8,0,0,0-8,8V719.9534" transform="translate(-253.7026 -31.8336)"/><polygon class="cls-6" points="654.012 686.953 658 693.86 661.989 686.953 654.012 686.953"/><rect class="cls-7" x="1014.791" y="588.6619" width="33.8242" height="33.8242" rx="2" transform="translate(476.6817 -583.9893) rotate(45)"/><path class="cls-12" d="M1031.7031,596.824a8.75,8.75,0,1,0,8.75,8.75A8.75,8.75,0,0,0,1031.7031,596.824Zm0,16.25a7.5,7.5,0,1,1,7.5-7.5A7.5,7.5,0,0,1,1031.7031,613.074Z" transform="translate(-253.7026 -31.8336)"/><circle class="cls-12" cx="778.0004" cy="578.428" r="0.9375"/><path class="cls-12" d="M1032.3281,600.574h-.9375a2.8063,2.8063,0,0,0-2.8125,2.8v.325h1.25v-.3125a1.5625,1.5625,0,0,1,1.5625-1.5625h.9375a1.5625,1.5625,0,0,1,0,3.125h-1.25v2.8125h1.25V606.199a2.8125,2.8125,0,0,0,0-5.625Z" transform="translate(-253.7026 -31.8336)"/><rect class="cls-4" x="768.0004" y="563.7405" width="20" height="20"/><rect class="cls-13" x="690.0004" y="565.8604" width="32" height="16" rx="8"/><rect class="cls-13" x="834.0004" y="565.8604" width="32" height="16" rx="8"/><path class="cls-5" d="M935.8385,753.98h88a8,8,0,0,1,8,8V868.2392" transform="translate(-253.7026 -31.8336)"/><polygon class="cls-6" points="774.147 835.238 778.135 842.146 782.125 835.238 774.147 835.238"/><path class="cls-5" d="M887.8385,753.98h-88a8,8,0,0,0-8,8V868.2392" transform="translate(-253.7026 -31.8336)"/><polygon class="cls-6" points="534.147 835.238 538.135 842.146 542.125 835.238 534.147 835.238"/><rect class="cls-7" x="894.9264" y="736.9478" width="33.8242" height="33.8242" rx="2" transform="translate(546.4281 -455.8003) rotate(45)"/><path class="cls-12" d="M911.8385,745.11a8.75,8.75,0,1,0,8.75,8.75A8.75,8.75,0,0,0,911.8385,745.11Zm0,16.25a7.5,7.5,0,1,1,7.5-7.5A7.5,7.5,0,0,1,911.8385,761.36Z" transform="translate(-253.7026 -31.8336)"/><circle class="cls-12" cx="658.1359" cy="726.7138" r="0.9375"/><path class="cls-12" d="M912.4635,748.86h-.9375a2.8062,2.8062,0,0,0-2.8125,2.8v.325h1.25v-.3125a1.5625,1.5625,0,0,1,1.5625-1.5625h.9375a1.5625,1.5625,0,0,1,0,3.125h-1.25v2.8125h1.25v-1.5625a2.8125,2.8125,0,0,0,0-5.625Z" transform="translate(-253.7026 -31.8336)"/><rect class="cls-4" x="648.1359" y="712.0263" width="20" height="20"/><rect class="cls-13" x="570.1359" y="714.1462" width="32" height="16" rx="8"/><rect class="cls-13" x="714.1359" y="714.1462" width="32" height="16" rx="8"/><rect class="cls-14" x="432.6279" y="846.9201" width="192" height="48"/><path class="cls-3" d="M709.274,894.0038a6.1257,6.1257,0,0,0-3.375,1l4,4a1.3125,1.3125,0,0,1,.1466,1.85l-.0216.0246a1.3125,1.3125,0,0,1-1.8534-.1l-.0216-.0247-4.125-4a6.1511,6.1511,0,0,0-1.0625,3.5625,6.3375,6.3375,0,0,0,6.3125,6.3125,6.8083,6.8083,0,0,0,1.625-.1875l4.1875,4.1875a3.1378,3.1378,0,0,0,4.4375-4.4375l-4.1875-4.1875a6.8083,6.8083,0,0,0,.1875-1.625,6.25,6.25,0,0,0-6.1237-6.3737Q709.3372,894.0038,709.274,894.0038Zm5,6.3125a4.7545,4.7545,0,0,1-.1875,1.3125l-.1875.6875.5.5,4.1875,4.1875a1.8,1.8,0,0,1,.5625,1.3125,1.7,1.7,0,0,1-.5625,1.3125,1.8124,1.8124,0,0,1-2.5625.0625q-.0319-.03-.0625-.0625l-4.1875-4.1875-.5-.5-.6875.1875a4.754,4.754,0,0,1-1.3125.1875,5.1689,5.1689,0,0,1-3.5625-1.4375,4.7691,4.7691,0,0,1-1.5-3.5625,5.2112,5.2112,0,0,1,.1875-1.375l2.75,2.75a2.5876,2.5876,0,0,0,3.6561.1545l.0314-.03a2.5873,2.5873,0,0,0-.0935-3.658l-.0315-.03-2.75-2.75a4.0335,4.0335,0,0,1,1.25-.1875,5.169,5.169,0,0,1,3.5625,1.4375A5.3061,5.3061,0,0,1,714.274,900.3163Z" transform="translate(-253.7026 -31.8336)"/><rect id="_Transparent_Rectangle_8" data-name=" Transparent Rectangle " class="cls-4" x="448.0089" y="860.9202" width="20" height="20"/><rect class="cls-14" x="681.638" y="846.9422" width="192" height="48"/><path class="cls-3" d="M958.2842,894.026a6.1247,6.1247,0,0,0-3.375,1l4,4a1.3126,1.3126,0,0,1,.1466,1.85l-.0216.0246a1.3125,1.3125,0,0,1-1.8534-.1l-.0216-.0247-4.125-4a6.15,6.15,0,0,0-1.0625,3.5625,6.3375,6.3375,0,0,0,6.3125,6.3125,6.81,6.81,0,0,0,1.625-.1875l4.1875,4.1875a3.1378,3.1378,0,0,0,4.4375-4.4375l-4.1875-4.1875a6.8134,6.8134,0,0,0,.1875-1.625,6.25,6.25,0,0,0-6.1237-6.3737Q958.3474,894.026,958.2842,894.026Zm5,6.3125a4.7545,4.7545,0,0,1-.1875,1.3125l-.1875.6875.5.5,4.1875,4.1875a1.8,1.8,0,0,1,.5625,1.3125,1.7,1.7,0,0,1-.5625,1.3125,1.8124,1.8124,0,0,1-2.5625.0625q-.032-.03-.0625-.0625l-4.1875-4.1875-.5-.5-.6875.1875a4.7545,4.7545,0,0,1-1.3125.1875,5.1685,5.1685,0,0,1-3.5625-1.4375,4.7687,4.7687,0,0,1-1.5-3.5625,5.2071,5.2071,0,0,1,.1875-1.375l2.75,2.75a2.5874,2.5874,0,0,0,3.656.1544l.0315-.0294a2.5875,2.5875,0,0,0-.0935-3.6581l-.0315-.0294-2.75-2.75a4.033,4.033,0,0,1,1.25-.1875,5.169,5.169,0,0,1,3.5625,1.4375A5.3065,5.3065,0,0,1,963.2842,900.3385Z" transform="translate(-253.7026 -31.8336)"/><rect id="_Transparent_Rectangle_9" data-name=" Transparent Rectangle " class="cls-4" x="697.0191" y="860.9424" width="20" height="20"/></g><g id="Text"><text class="cls-15" transform="translate(733.7515 866.5575)"><tspan class="cls-16">T</tspan><tspan class="cls-17" x="6.4199" y="0">r</tspan><tspan x="11.0039" y="0">an</tspan><tspan class="cls-18" x="24.7681" y="0">sf</tspan><tspan x="34.8599" y="0">orm in pla</tspan><tspan class="cls-19" x="90.4551" y="0">c</tspan><tspan x="96.5508" y="0">e or </tspan><tspan x="0" y="14">n</tspan><tspan class="cls-19" x="7.0562" y="14">e</tspan><tspan x="13.6919" y="14">w apps on</tspan><tspan class="cls-20" x="70.0908" y="14">l</tspan><tspan x="73.5352" y="14">y</tspan></text><text class="cls-15" transform="translate(484.7412 866.5352)">App <tspan class="cls-21" x="25.2954" y="0">b</tspan><tspan x="32.3872" y="0">y app with </tspan><tspan x="0" y="14">pa</tspan><tspan class="cls-17" x="13.9077" y="14">r</tspan><tspan x="18.4917" y="14">a</tspan><tspan class="cls-22" x="25.1997" y="14">l</tspan><tspan x="28.6436" y="14">lel inf</tspan><tspan class="cls-17" x="59.7949" y="14">r</tspan><tspan x="64.3789" y="14">a</tspan><tspan class="cls-23" x="71.0869" y="14">s</tspan><tspan x="76.979" y="14">tructu</tspan><tspan class="cls-19" x="110.9385" y="14">r</tspan><tspan x="115.5942" y="14">e</tspan></text><text class="cls-24" transform="translate(717.0444 726.586)">Ha<tspan class="cls-25" x="14.8916" y="0">r</tspan><tspan x="19.2236" y="0">d</tspan></text><text class="cls-24" transform="translate(573.6265 726.586)">Ea<tspan class="cls-26" x="13.4043" y="0">s</tspan><tspan x="19.0322" y="0">y</tspan></text><text class="cls-24" transform="translate(696.5273 578.3004)"><tspan class="cls-27">Y</tspan><tspan x="6.5166" y="0">es</tspan></text><text class="cls-24" transform="translate(842.3994 578.3001)">No</text><text class="cls-8" transform="translate(610.1165 764.4957)">D<tspan class="cls-28" x="9.646" y="0">a</tspan><tspan x="17.4155" y="0">ta mig</tspan><tspan class="cls-17" x="57.7061" y="0">r</tspan><tspan class="cls-29" x="63.0542" y="0">a</tspan><tspan x="70.8242" y="0">tion </tspan><tspan x="15.5815" y="18">di</tspan><tspan class="cls-30" x="27.8452" y="18">f</tspan><tspan x="32.7871" y="18">ficu</tspan><tspan class="cls-11" x="56.9365" y="18">l</tspan><tspan x="60.9824" y="18">ty?</tspan></text><text class="cls-31" transform="translate(496.6123 31.5167)">Scope of migration</text><text class="cls-32" transform="translate(471.4797 124.5854)">&lt;500</text><text class="cls-32" transform="translate(622.4545 124.7117)">&gt;500</text><text class="cls-8" transform="translate(326.884 318.7677)">Client <tspan x="-20.1318" y="18">p</tspan><tspan class="cls-11" x="-11.7319" y="18">r</tspan><tspan x="-6.2998" y="18">oduc</tspan><tspan class="cls-28" x="25.3955" y="18">a</tspan><tspan x="33.165" y="18">tion </tspan><tspan x="-24.2056" y="36">applic</tspan><tspan class="cls-28" x="15.5811" y="36">a</tspan><tspan x="23.3506" y="36">tions?</tspan></text><text class="cls-8" transform="translate(725.5435 318.0467)">Nonp<tspan class="cls-11" x="34.5796" y="0">r</tspan><tspan x="40.0117" y="0">oduction/</tspan><tspan class="cls-33" x="15.9316" y="18">P</tspan><tspan class="cls-11" x="24.7656" y="18">r</tspan><tspan x="30.1978" y="18">oduction </tspan><tspan x="15.3013" y="36">sepa</tspan><tspan class="cls-17" x="46.3247" y="36">r</tspan><tspan class="cls-28" x="51.6729" y="36">at</tspan><tspan x="64.6226" y="36">ed?</tspan></text><text class="cls-24" transform="translate(697.4617 280.1449)">No</text><text class="cls-24" transform="translate(839.5896 280.1449)"><tspan class="cls-27">Y</tspan><tspan x="6.5166" y="0">es</tspan></text><text class="cls-24" transform="translate(264.5347 280.8756)"><tspan class="cls-27">Y</tspan><tspan x="6.5166" y="0">es</tspan></text><text class="cls-15" transform="translate(413.7402 421.5536)">App <tspan class="cls-21" x="25.2954" y="0">b</tspan><tspan x="32.3872" y="0">y app with </tspan><tspan x="0" y="14">pa</tspan><tspan class="cls-17" x="13.9077" y="14">r</tspan><tspan x="18.4917" y="14">a</tspan><tspan class="cls-22" x="25.1997" y="14">l</tspan><tspan x="28.6436" y="14">lel inf</tspan><tspan class="cls-17" x="59.7949" y="14">r</tspan><tspan x="64.3789" y="14">a</tspan><tspan class="cls-23" x="71.0869" y="14">s</tspan><tspan x="76.979" y="14">tructu</tspan><tspan class="cls-19" x="110.9385" y="14">r</tspan><tspan x="115.5942" y="14">e</tspan></text><text class="cls-15" transform="translate(619.6204 421.5538)">Mig<tspan class="cls-17" x="19.644" y="0">r</tspan><tspan class="cls-18" x="24.228" y="0">at</tspan><tspan class="cls-34" x="35.3281" y="0">e nonp</tspan><tspan class="cls-19" x="72.9238" y="0">r</tspan><tspan x="77.5796" y="0">oduction </tspan><tspan x="0" y="14">pie</tspan><tspan class="cls-19" x="17.2075" y="14">c</tspan><tspan x="23.3032" y="14">emeal</tspan></text><text class="cls-8" transform="translate(177.9885 467.4967)">D<tspan class="cls-28" x="9.646" y="0">a</tspan><tspan x="17.4155" y="0">ta mig</tspan><tspan class="cls-17" x="57.7061" y="0">r</tspan><tspan class="cls-29" x="63.0542" y="0">a</tspan><tspan x="70.8242" y="0">tion </tspan><tspan x="15.5815" y="18">di</tspan><tspan class="cls-30" x="27.8452" y="18">f</tspan><tspan x="32.7871" y="18">ficu</tspan><tspan class="cls-11" x="56.9365" y="18">l</tspan><tspan x="60.9824" y="18">ty?</tspan></text><text class="cls-24" transform="translate(141.4985 429.587)">Ea<tspan class="cls-26" x="13.4043" y="0">s</tspan><tspan x="19.0322" y="0">y</tspan></text><text class="cls-24" transform="translate(284.9165 429.587)">Ha<tspan class="cls-25" x="14.8916" y="0">r</tspan><tspan x="19.2236" y="0">d</tspan></text><text class="cls-8" transform="translate(869.2104 467.4967)">Net<tspan class="cls-9" x="23.1138" y="0">w</tspan><tspan x="34.4536" y="0">ork </tspan><tspan class="cls-11" x="-11.396" y="18">c</tspan><tspan x="-4.2842" y="18">ompl</tspan><tspan class="cls-35" x="28.5449" y="18">e</tspan><tspan x="36.147" y="18">xity?</tspan></text><text class="cls-24" transform="translate(814.1794 429.587)"><tspan class="cls-33">L</tspan><tspan class="cls-36" x="5.8916" y="0">o</tspan><tspan x="12.5518" y="0">w</tspan></text><text class="cls-24" transform="translate(956.7449 429.587)">High</text><text class="cls-15" transform="translate(52.6133 569.5362)">App <tspan class="cls-21" x="25.2954" y="0">b</tspan><tspan x="32.3872" y="0">y app with </tspan><tspan x="0" y="14">pa</tspan><tspan class="cls-17" x="13.9077" y="14">r</tspan><tspan x="18.4917" y="14">a</tspan><tspan class="cls-22" x="25.1997" y="14">l</tspan><tspan x="28.6436" y="14">lel inf</tspan><tspan class="cls-17" x="59.7949" y="14">r</tspan><tspan x="64.3789" y="14">a</tspan><tspan class="cls-23" x="71.0869" y="14">s</tspan><tspan x="76.979" y="14">tructu</tspan><tspan class="cls-19" x="110.9385" y="14">r</tspan><tspan x="115.5942" y="14">e</tspan></text><text class="cls-15" transform="translate(301.6235 569.5584)"><tspan class="cls-16">T</tspan><tspan class="cls-17" x="6.4199" y="0">r</tspan><tspan x="11.0039" y="0">an</tspan><tspan class="cls-18" x="24.7681" y="0">sf</tspan><tspan x="34.8599" y="0">orm in pla</tspan><tspan class="cls-19" x="90.4551" y="0">c</tspan><tspan x="96.5508" y="0">e or </tspan><tspan x="0" y="14">n</tspan><tspan class="cls-19" x="7.0562" y="14">e</tspan><tspan x="13.6919" y="14">w apps on</tspan><tspan class="cls-20" x="70.0908" y="14">l</tspan><tspan x="73.5352" y="14">y</tspan></text><text class="cls-15" transform="translate(854.1138 718.5477)">App <tspan class="cls-21" x="25.2954" y="0">b</tspan><tspan x="32.3872" y="0">y app with </tspan><tspan x="0" y="14">pa</tspan><tspan class="cls-17" x="13.9077" y="14">r</tspan><tspan x="18.4917" y="14">a</tspan><tspan class="cls-22" x="25.1997" y="14">l</tspan><tspan x="28.6436" y="14">lel inf</tspan><tspan class="cls-17" x="59.7949" y="14">r</tspan><tspan x="64.3789" y="14">a</tspan><tspan class="cls-23" x="71.0869" y="14">s</tspan><tspan x="76.979" y="14">tructu</tspan><tspan class="cls-19" x="110.9385" y="14">r</tspan><tspan x="115.5942" y="14">e</tspan></text><text class="cls-15" transform="translate(973.1763 570.6954)"><tspan class="cls-16">T</tspan><tspan class="cls-17" x="6.4199" y="0">r</tspan><tspan x="11.0039" y="0">an</tspan><tspan class="cls-18" x="24.7681" y="0">sf</tspan><tspan x="34.8599" y="0">orm in pla</tspan><tspan class="cls-19" x="90.4551" y="0">c</tspan><tspan x="96.5508" y="0">e or </tspan><tspan x="0" y="14">n</tspan><tspan class="cls-19" x="7.0562" y="14">e</tspan><tspan x="13.6919" y="14">w apps on</tspan><tspan class="cls-20" x="70.0908" y="14">l</tspan><tspan x="73.5352" y="14">y</tspan></text><text class="cls-24" transform="translate(410.4067 280.8753)">No</text><text class="cls-8" transform="translate(758.8767 616.1925)">Client <tspan x="-20.1318" y="18">p</tspan><tspan class="cls-11" x="-11.7319" y="18">r</tspan><tspan x="-6.2998" y="18">oduc</tspan><tspan class="cls-28" x="25.3955" y="18">a</tspan><tspan x="33.165" y="18">tion </tspan><tspan x="-24.2056" y="36">applic</tspan><tspan class="cls-28" x="15.5811" y="36">a</tspan><tspan x="23.3506" y="36">tions?</tspan></text></g></svg>