<svg xmlns="http://www.w3.org/2000/svg" width="807.8272" height="455.663" viewBox="0 0 807.8272 455.663"><defs><style>.cls-1,.cls-10{fill:#eef4fb;}.cls-1{stroke:#eef5fb;}.cls-1,.cls-10,.cls-11,.cls-12,.cls-2,.cls-4,.cls-7,.cls-8,.cls-9{stroke-miterlimit:10;}.cls-12,.cls-2,.cls-7,.cls-8,.cls-9{fill:none;}.cls-2{stroke:#010101;}.cls-11,.cls-27,.cls-3{fill:#010101;}.cls-4,.cls-6{fill:#fff;}.cls-10,.cls-4,.cls-7,.cls-8,.cls-9{stroke:#3553a4;}.cls-5{fill:#3553a4;}.cls-8{stroke-dasharray:4.0039 4.0039;}.cls-9{stroke-dasharray:3.9866 3.9866;}.cls-11,.cls-12{stroke:#1c75bc;}.cls-13{font-size:16px;}.cls-13,.cls-21,.cls-25{fill:#231f20;}.cls-13,.cls-21,.cls-25,.cls-27{font-family:IBMPlexSans, IBM Plex Sans;}.cls-14{letter-spacing:-0.007em;}.cls-15{letter-spacing:-0.005em;}.cls-16{letter-spacing:0em;}.cls-17{letter-spacing:-0.045em;}.cls-18{letter-spacing:-0.004em;}.cls-19{letter-spacing:-0.005em;}.cls-20{letter-spacing:-0.004em;}.cls-21,.cls-25,.cls-27{font-size:14px;}.cls-22,.cls-25{letter-spacing:-0.015em;}.cls-23{letter-spacing:-0.005em;}.cls-24{letter-spacing:-0.006em;}.cls-26{letter-spacing:0em;}</style></defs><g id="Background"><rect class="cls-1" x="413.7191" y="0.5" width="393.6081" height="416.3912"/><line class="cls-2" x1="301.7571" y1="250.7189" x2="406.5429" y2="250.7189"/><polygon class="cls-3" points="405.084 255.705 413.719 250.719 405.084 245.733 405.084 255.705"/><polygon class="cls-4" points="439.12 86.965 782.2 88.386 782.968 328.136 439.12 328.136 439.12 86.965"/><rect class="cls-5" x="438.0875" y="88.3043" width="48" height="48"/><path class="cls-6" d="M562.4653,159.6291l3.42,3.41.58.59h12.83v16h-24v-20h7.17m0-2h-7.17a2,2,0,0,0-2,2v20a2,2,0,0,0,2,2h24a2,2,0,0,0,2-2v-16a2,2,0,0,0-2-2h-12l-3.41-3.41A2,2,0,0,0,562.4653,157.6291Z" transform="translate(-105.2078 -57.3247)"/><polygon class="cls-6" points="460.241 147.029 764.531 146.833 764.492 194.686 460.202 194.881 460.241 147.029"/><polyline class="cls-7" points="460.24 149.029 460.241 147.029 462.241 147.027"/><line class="cls-8" x1="466.2451" y1="147.0249" x2="760.5294" y2="146.8356"/><polyline class="cls-7" points="762.531 146.834 764.531 146.833 764.53 148.833"/><line class="cls-9" x1="764.5264" y1="152.8196" x2="764.4955" y2="190.6923"/><polyline class="cls-7" points="764.494 192.686 764.492 194.686 762.492 194.687"/><line class="cls-8" x1="758.4883" y1="194.6895" x2="464.204" y2="194.8788"/><polyline class="cls-7" points="462.202 194.88 460.202 194.881 460.204 192.881"/><line class="cls-9" x1="460.207" y1="188.8947" x2="460.238" y2="151.0221"/><rect class="cls-10" x="460.1909" y="147.0209" width="48" height="48"/><polygon class="cls-6" points="459.887 207.031 764.177 206.835 764.138 254.688 459.848 254.884 459.887 207.031"/><polyline class="cls-7" points="459.885 209.031 459.887 207.031 461.887 207.03"/><line class="cls-8" x1="465.8908" y1="207.0272" x2="760.1751" y2="206.8379"/><polyline class="cls-7" points="762.177 206.837 764.177 206.835 764.175 208.835"/><line class="cls-9" x1="764.1721" y1="212.8219" x2="764.1411" y2="250.6946"/><polyline class="cls-7" points="764.14 252.688 764.138 254.688 762.138 254.689"/><line class="cls-8" x1="758.134" y1="254.6918" x2="463.8497" y2="254.8811"/><polyline class="cls-7" points="461.848 254.882 459.848 254.884 459.849 252.884"/><line class="cls-9" x1="459.8526" y1="248.8971" x2="459.8836" y2="211.0244"/><rect class="cls-10" x="459.8366" y="207.0232" width="48" height="48"/><polygon class="cls-6" points="460.247 267.361 764.537 267.165 764.498 315.018 460.208 315.213 460.247 267.361"/><polyline class="cls-7" points="460.245 269.361 460.247 267.361 462.247 267.359"/><line class="cls-8" x1="466.2507" y1="267.3569" x2="760.535" y2="267.1676"/><polyline class="cls-7" points="762.537 267.166 764.537 267.165 764.535 269.165"/><line class="cls-9" x1="764.532" y1="273.1516" x2="764.501" y2="311.0243"/><polyline class="cls-7" points="764.499 313.018 764.498 315.018 762.498 315.019"/><line class="cls-8" x1="758.4939" y1="315.0214" x2="464.2096" y2="315.2107"/><polyline class="cls-7" points="462.208 315.212 460.208 315.213 460.209 313.213"/><line class="cls-9" x1="460.2125" y1="309.2267" x2="460.2435" y2="271.354"/><rect class="cls-10" x="460.1965" y="267.3528" width="48" height="48"/><polygon class="cls-6" points="460.247 351.331 764.537 351.136 764.498 398.988 460.208 399.184 460.247 351.331"/><polyline class="cls-7" points="460.245 353.331 460.247 351.331 462.247 351.33"/><line class="cls-8" x1="466.2507" y1="351.3274" x2="760.535" y2="351.1381"/><polyline class="cls-7" points="762.537 351.137 764.537 351.136 764.535 353.136"/><line class="cls-9" x1="764.532" y1="357.1222" x2="764.501" y2="394.9948"/><polyline class="cls-7" points="764.499 396.988 764.498 398.988 762.498 398.989"/><line class="cls-8" x1="758.4939" y1="398.992" x2="464.2096" y2="399.1813"/><polyline class="cls-7" points="462.208 399.183 460.208 399.184 460.209 397.184"/><line class="cls-9" x1="460.2125" y1="393.1972" x2="460.2435" y2="355.3246"/><rect class="cls-10" x="460.1965" y="351.3234" width="48" height="48"/><path class="cls-5" d="M597.4043,419.6481h-16a2,2,0,0,0-2,2v22a2,2,0,0,0,2,2h16a2,2,0,0,0,2-2v-22A2,2,0,0,0,597.4043,419.6481Zm0,2v6h-16v-6Zm-16,14v-6h16v6Zm0,8v-6h16v6Z" transform="translate(-105.2078 -57.3247)"/><circle class="cls-5" cx="479.1965" cy="367.3234" r="1"/><circle class="cls-5" cx="479.1965" cy="375.3234" r="1"/><circle class="cls-5" cx="479.1965" cy="383.3234" r="1"/><path class="cls-5" d="M599.9036,348.9742a12.1352,12.1352,0,0,0-1.1791-4.3168l3.7179-1.35a11.9879,11.9879,0,0,0-1.0281-1.7382l-1.7431.635a11.9884,11.9884,0,0,0-21.71,7.9129l1.7477-.6412a12.1879,12.1879,0,0,0,.3309,1.9846l-3.7136,1.3553a12.1451,12.1451,0,0,0,1.8727,4.0616l1.9663-.7163.0026.0039a11.8861,11.8861,0,0,0,4.67,3.8909,12.0131,12.0131,0,0,0,15.9446-5.8042,11.8724,11.8724,0,0,0,1.08-5.992Zm-2.92,3.4967a7.8,7.8,0,0,1-10.3533,3.7744,7.7194,7.7194,0,0,1-2.2714-1.6128l-1.9846.7235a7.84,7.84,0,0,1-2.0742-3.99l.0009-.0008,3.7242-1.3566a7.8175,7.8175,0,0,1-.1232-2.0653l-1.7517.6362a7.773,7.773,0,0,1,11.0566-6.4626h.0067a7.7442,7.7442,0,0,1,2.2646,1.615l1.7442-.634a7.8014,7.8014,0,0,1,1.229,1.6558l-3.71,1.3595a7.8245,7.8245,0,0,1,.9766,4.3882l1.9685-.7151a7.671,7.671,0,0,1-.703,2.6841Z" transform="translate(-105.2078 -57.3247)"/><g id="application--virtual"><rect class="cls-11" x="484.8858" y="176.3082" width="4" height="4"/><rect class="cls-11" x="478.8858" y="176.3082" width="4" height="4"/><rect class="cls-11" x="484.8858" y="182.3082" width="4" height="4"/><rect class="cls-11" x="478.8858" y="182.3082" width="4" height="4"/><path class="cls-11" d="M597.5936,239.6329h-.5v-2h.5a5.4961,5.4961,0,0,0,.377-10.98l-.8365-.0566-.09-.834a7.9979,7.9979,0,0,0-15.9014,0l-.09.834-.8365.0566a5.4961,5.4961,0,0,0,.3774,10.98h.5v2h-.5a7.4964,7.4964,0,0,1-1.3218-14.876,9.9992,9.9992,0,0,1,19.6436,0,7.4964,7.4964,0,0,1-1.3218,14.876Z" transform="translate(-105.2078 -57.3247)"/><rect id="_Transparent_Rectangle_" data-name=" Transparent Rectangle " class="cls-12" x="467.8858" y="157.3082" width="32" height="32"/></g><g id="application--virtual-2" data-name="application--virtual"><rect class="cls-11" x="485.8851" y="237.7189" width="4" height="4"/><rect class="cls-11" x="479.8851" y="237.7189" width="4" height="4"/><rect class="cls-11" x="485.8851" y="243.7189" width="4" height="4"/><rect class="cls-11" x="479.8851" y="243.7189" width="4" height="4"/><path class="cls-11" d="M598.5929,301.0436h-.5v-2h.5a5.4961,5.4961,0,0,0,.377-10.98l-.8365-.0566-.09-.834a7.9979,7.9979,0,0,0-15.9014,0l-.09.834-.8365.0566a5.4961,5.4961,0,0,0,.3774,10.98h.5v2h-.5a7.4964,7.4964,0,0,1-1.3218-14.876,9.9992,9.9992,0,0,1,19.6436,0,7.4964,7.4964,0,0,1-1.3218,14.876Z" transform="translate(-105.2078 -57.3247)"/><rect id="_Transparent_Rectangle_2" data-name=" Transparent Rectangle " class="cls-12" x="468.8851" y="218.7189" width="32" height="32"/></g><polygon class="cls-6" points="460.258 17.435 764.548 17.24 764.509 65.092 460.219 65.288 460.258 17.435"/><polyline class="cls-7" points="460.256 19.435 460.258 17.435 462.258 17.434"/><line class="cls-8" x1="466.2618" y1="17.4316" x2="760.5461" y2="17.2423"/><polyline class="cls-7" points="762.548 17.241 764.548 17.24 764.546 19.24"/><line class="cls-9" x1="764.5432" y1="23.2264" x2="764.5122" y2="61.0989"/><polyline class="cls-7" points="764.511 63.092 764.509 65.092 762.509 65.094"/><line class="cls-8" x1="758.5051" y1="65.0961" x2="464.2207" y2="65.2855"/><polyline class="cls-7" points="462.219 65.287 460.219 65.288 460.22 63.288"/><line class="cls-9" x1="460.2237" y1="59.3015" x2="460.2547" y2="21.4288"/><rect class="cls-10" x="460.2077" y="17.4276" width="48" height="48"/><path class="cls-5" d="M597.4155,85.7523h-16a2,2,0,0,0-2,2v22a2,2,0,0,0,2,2h16a2,2,0,0,0,2-2v-22A2,2,0,0,0,597.4155,85.7523Zm0,2v6h-16v-6Zm-16,14v-6h16v6Zm0,8v-6h16v6Z" transform="translate(-105.2078 -57.3247)"/><circle class="cls-5" cx="479.2077" cy="33.4276" r="1"/><circle class="cls-5" cx="479.2077" cy="41.4276" r="1"/><circle class="cls-5" cx="479.2077" cy="49.4276" r="1"/><path id="word--cloud" class="cls-3" d="M327.3677,380.9358H194.4515c-49.3688,0-89.2437-42.875-89.2437-95.9583s39.8749-95.9584,89.2437-95.9584a66.9191,66.9191,0,0,1,14.241,1.0209c15.1905-20.4167,37.9761-31.6458,61.7111-31.6458,40.8242,0,74.0533,32.6666,78.8,75.5416,28.482,10.2084,48.4194,38.7917,48.4194,71.4583C397.6233,347.2483,366.2931,380.9358,327.3677,380.9358Zm-132.9162-183.75c-45.5712,0-81.6485,39.8125-81.6485,87.7917,0,49,37.0267,87.7916,81.6485,87.7916H327.3677c35.1278,0,62.66-30.625,62.66-67.375,0-29.6041-18.988-56.1458-45.5712-65.3333-.9494,0-1.8988-2.0416-2.8482-3.0625C337.8111,196.165,307.43,165.54,269.4542,165.54c-22.7856,0-43.6725,11.2291-57.9135,30.625-.9494,1.0208-1.8988,2.0416-3.7976,1.0208Z" transform="translate(-105.2078 -57.3247)"/></g><g id="Text"><text class="cls-13" transform="translate(52.8041 451.7432)">Exi<tspan class="cls-14" x="21.4395" y="0">s</tspan><tspan x="29.1201" y="0">ting cloud depl</tspan><tspan class="cls-15" x="135.2461" y="0">o</tspan><tspan class="cls-16" x="144.126" y="0">yment</tspan></text><text class="cls-13" transform="translate(425.9262 451.7432)"><tspan class="cls-17">T</tspan><tspan class="cls-18" x="8.4316" y="0">r</tspan><tspan x="14.2397" y="0">an</tspan><tspan class="cls-19" x="31.8716" y="0">s</tspan><tspan class="cls-20" x="39.584" y="0">f</tspan><tspan x="44.7036" y="0">ormed cloud depl</tspan><tspan class="cls-19" x="170.541" y="0">o</tspan><tspan x="179.4214" y="0">yment</tspan></text><text class="cls-21" transform="translate(106.3479 158.1929)">Database 1</text><text class="cls-21" transform="translate(100.4049 190.4462)">Application 1</text><text class="cls-21" transform="translate(100.4049 222.7001)">Application 2</text><text class="cls-21" transform="translate(106.6485 254.9537)"><tspan class="cls-22">R</tspan><tspan x="8.75" y="0">esou</tspan><tspan class="cls-23" x="39.0459" y="0">r</tspan><tspan class="cls-24" x="44.1138" y="0">c</tspan><tspan x="51.0718" y="0">e 1</tspan></text><text class="cls-21" transform="translate(106.3478 287.2069)">Database 2</text><text class="cls-25" transform="translate(493.4731 122.3045)">W<tspan class="cls-26" x="12.2637" y="0">orkload a</tspan><tspan class="cls-24" x="70.6431" y="0">cc</tspan><tspan class="cls-26" x="84.5586" y="0">ount</tspan></text><text class="cls-27" transform="translate(513.6069 379.7299)">Database 2</text><text class="cls-21" transform="translate(516.034 175.2955)">Application 1</text><text class="cls-21" transform="translate(516.3839 233.3123)">Application 2</text><text class="cls-21" transform="translate(516.7055 296.1137)"><tspan class="cls-22">R</tspan><tspan x="8.75" y="0">esou</tspan><tspan class="cls-23" x="39.0459" y="0">r</tspan><tspan class="cls-24" x="44.1138" y="0">c</tspan><tspan x="51.0718" y="0">e 1</tspan></text><text class="cls-21" transform="translate(518.0129 46.4277)">Database 1</text></g></svg>