<svg xmlns="http://www.w3.org/2000/svg" width="1487.3592" height="406.9338" viewBox="0 0 1487.3592 406.9338"><defs><style>.cls-1,.cls-9{fill:#eef4fb;}.cls-1{stroke:#eef5fb;}.cls-1,.cls-10,.cls-11,.cls-13,.cls-14,.cls-3,.cls-4,.cls-6,.cls-7,.cls-8,.cls-9{stroke-miterlimit:10;}.cls-2,.cls-4{fill:#3553a4;}.cls-10,.cls-3,.cls-5{fill:#fff;}.cls-10,.cls-11,.cls-3,.cls-4,.cls-6,.cls-7,.cls-8,.cls-9{stroke:#3553a4;}.cls-11,.cls-14,.cls-6,.cls-7,.cls-8{fill:none;}.cls-7{stroke-dasharray:4.0039 4.0039;}.cls-8{stroke-dasharray:3.9866 3.9866;}.cls-10,.cls-11{fill-rule:evenodd;}.cls-12,.cls-15,.cls-18{font-size:14px;}.cls-12,.cls-13,.cls-16,.cls-17,.cls-18{fill:#010101;}.cls-12{font-family:IBMPlexSans-Italic, IBM Plex Sans;font-style:italic;}.cls-13,.cls-14{stroke:#1c75bc;}.cls-15,.cls-20{fill:#231f20;}.cls-15,.cls-18,.cls-20{font-family:IBMPlexSans, IBM Plex Sans;}.cls-17,.cls-20{font-size:16px;}.cls-17{font-family:IBMPlexSans-SemiBold, IBM Plex Sans;font-weight:600;}.cls-19{letter-spacing:-0.005em;}.cls-21{letter-spacing:-0.007em;}.cls-22{letter-spacing:-0.005em;}.cls-23{letter-spacing:-0.005em;}.cls-24{letter-spacing:0em;}</style></defs><g id="Background"><rect class="cls-1" x="416.1144" y="1.9667" width="1070.7447" height="360.3739"/><rect class="cls-2" x="410.0166" width="48" height="48"/><polygon class="cls-3" points="441.154 144.929 1126.865 146.115 1128.4 346.269 441.154 346.269 441.154 144.929"/><rect class="cls-2" x="441.1542" y="145.202" width="48" height="48"/><rect class="cls-4" x="514.8802" y="154.0539" width="2.5859" height="314.3405" transform="translate(927.9947 516.3945) rotate(180)"/><path class="cls-5" d="M531.134,127.5939h10.971v2.0355H531.134Zm0,5.0889H544.1v2.0355H531.134Z" transform="translate(-104.3517 -106.0539)"/><path class="cls-5" d="M551.0813,117.4161H527.1446a2.0154,2.0154,0,0,0-1.9947,2.0355v20.3556a2.0154,2.0154,0,0,0,1.9947,2.0356h23.9367a2.0155,2.0155,0,0,0,1.9947-2.0356V119.4516A2.0154,2.0154,0,0,0,551.0813,117.4161Zm0,2.0355v2.0356H527.1446v-2.0356Zm-23.9367,20.3556V123.5227h23.9367v16.2845Z" transform="translate(-104.3517 -106.0539)"/><polygon class="cls-5" points="484.372 214.327 788.662 214.131 788.623 261.984 484.333 262.179 484.372 214.327"/><polyline class="cls-6" points="484.37 216.327 484.372 214.327 486.372 214.325"/><line class="cls-7" x1="490.3755" y1="214.3228" x2="784.6598" y2="214.1336"/><polyline class="cls-6" points="786.662 214.132 788.662 214.131 788.66 216.131"/><line class="cls-8" x1="788.6569" y1="220.1176" x2="788.6259" y2="257.9903"/><polyline class="cls-6" points="788.624 259.984 788.623 261.984 786.623 261.985"/><line class="cls-7" x1="782.6187" y1="261.9874" x2="488.3344" y2="262.1767"/><polyline class="cls-6" points="486.332 262.178 484.332 262.179 484.334 260.179"/><line class="cls-8" x1="484.3374" y1="256.1927" x2="484.3684" y2="218.32"/><rect class="cls-9" x="484.3213" y="214.3188" width="48" height="48"/><polygon class="cls-5" points="484.017 274.329 788.307 274.133 788.268 321.986 483.978 322.182 484.017 274.329"/><polyline class="cls-6" points="484.016 276.329 484.017 274.329 486.017 274.328"/><line class="cls-7" x1="490.0212" y1="274.3252" x2="784.3055" y2="274.1358"/><polyline class="cls-6" points="786.307 274.135 788.307 274.133 788.306 276.133"/><line class="cls-8" x1="788.3025" y1="280.1198" x2="788.2716" y2="317.9925"/><polyline class="cls-6" points="788.27 319.986 788.268 321.986 786.268 321.987"/><line class="cls-7" x1="782.2644" y1="321.9897" x2="487.9801" y2="322.179"/><polyline class="cls-6" points="485.978 322.18 483.978 322.182 483.98 320.182"/><line class="cls-8" x1="483.9831" y1="316.195" x2="484.0141" y2="278.3223"/><rect class="cls-9" x="483.967" y="274.3211" width="48" height="48"/><polygon class="cls-5" points="803.345 212.648 1107.635 212.452 1107.596 260.305 803.306 260.5 803.345 212.648"/><polyline class="cls-6" points="803.343 214.648 803.345 212.648 805.345 212.647"/><line class="cls-7" x1="809.3487" y1="212.644" x2="1103.633" y2="212.4546"/><polyline class="cls-6" points="1105.635 212.453 1107.635 212.452 1107.633 214.452"/><line class="cls-8" x1="1107.63" y1="218.4386" x2="1107.5991" y2="256.3113"/><polyline class="cls-6" points="1107.597 258.305 1107.596 260.305 1105.596 260.306"/><line class="cls-7" x1="1101.5919" y1="260.3085" x2="807.3076" y2="260.4978"/><polyline class="cls-6" points="805.306 260.499 803.306 260.5 803.307 258.5"/><line class="cls-8" x1="803.3106" y1="254.5138" x2="803.3416" y2="216.6411"/><rect class="cls-9" x="803.2945" y="212.6399" width="48" height="48"/><polygon class="cls-5" points="803.345 273.618 1107.635 273.423 1107.596 321.275 803.306 321.471 803.345 273.618"/><polyline class="cls-6" points="803.343 275.618 803.345 273.618 805.345 273.617"/><line class="cls-7" x1="809.3487" y1="273.6145" x2="1103.633" y2="273.4252"/><polyline class="cls-6" points="1105.635 273.424 1107.635 273.423 1107.633 275.423"/><line class="cls-8" x1="1107.6301" y1="279.4092" x2="1107.599" y2="317.2818"/><polyline class="cls-6" points="1107.597 319.275 1107.596 321.275 1105.596 321.276"/><line class="cls-7" x1="1101.5919" y1="321.279" x2="807.3076" y2="321.4683"/><polyline class="cls-6" points="805.306 321.47 803.306 321.471 803.307 319.471"/><line class="cls-8" x1="803.3106" y1="315.4843" x2="803.3415" y2="277.6117"/><rect class="cls-9" x="803.2945" y="273.6104" width="48" height="48"/><rect class="cls-5" x="465.1543" y="180.2012" width="12" height="2"/><rect class="cls-5" x="465.1543" y="175.2012" width="12" height="2"/><rect class="cls-5" x="465.1543" y="170.2012" width="12" height="2"/><path class="cls-5" d="M565.506,285.2551h-4.5a7.4964,7.4964,0,0,1-1.3218-14.876,10,10,0,0,1,19.8218,1.876h-2a7.999,7.999,0,0,0-15.9507-.87l-.09.8335-.8363.0565a5.4962,5.4962,0,0,0,.377,10.98h4.5Z" transform="translate(-104.3517 -106.0539)"/><polyline class="cls-10" points="1147.405 63.969 1456.813 63.969 1456.813 115.884"/><polygon class="cls-3" points="1142.982 72.464 1448.216 72.747 1448.899 120.464 1142.982 120.464 1142.982 72.464"/><polyline class="cls-11" points="1144.482 67.969 1452.813 67.969 1452.813 118.215"/><rect class="cls-3" x="1142.5757" y="72.4645" width="48" height="48"/><path class="cls-2" d="M1261.7672,205.5184h-2v-2a3.0033,3.0033,0,0,1,3-3h5v2h-5a1.0011,1.0011,0,0,0-1,1Z" transform="translate(-104.3517 -106.0539)"/><path class="cls-2" d="M1265.7672,199.5184a4,4,0,1,1,4-4A4,4,0,0,1,1265.7672,199.5184Zm0-6a2,2,0,1,0,2,2A2,2,0,0,0,1265.7672,193.5184Z" transform="translate(-104.3517 -106.0539)"/><path class="cls-2" d="M1273.7672,206.5184a4,4,0,1,1,4-4A4,4,0,0,1,1273.7672,206.5184Zm0-6a2,2,0,1,0,2,2A2,2,0,0,0,1273.7672,200.5184Z" transform="translate(-104.3517 -106.0539)"/><path class="cls-2" d="M1279.7672,212.5184h-2v-2a1.0011,1.0011,0,0,0-1-1h-6a1.0011,1.0011,0,0,0-1,1v2h-2v-2a3.0033,3.0033,0,0,1,3-3h6a3.0033,3.0033,0,0,1,3,3Z" transform="translate(-104.3517 -106.0539)"/><path class="cls-2" d="M1261.7672,216.5184h-4a2.0021,2.0021,0,0,1-2-2v-24a2.002,2.002,0,0,1,2-2h4v2h-4v24h4Z" transform="translate(-104.3517 -106.0539)"/><path class="cls-2" d="M1281.7672,216.5184h-4v-2h4v-24h-4v-2h4a2.0021,2.0021,0,0,1,2,2v24A2.0021,2.0021,0,0,1,1281.7672,216.5184Z" transform="translate(-104.3517 -106.0539)"/><polygon class="cls-3" points="441.872 72.464 747.511 72.747 748.195 120.464 441.872 120.464 441.872 72.464"/><rect class="cls-3" x="441.4652" y="72.4645" width="48" height="48"/><rect class="cls-2" x="457.7323" y="96.3613" width="6.7107" height="0.9827"/><rect class="cls-2" x="457.7323" y="93.4132" width="6.7107" height="0.9827"/><path class="cls-2" d="M566.7522,211.7073H556.54V192.9448h24.51v9.3813h2.0425v-9.3813a1.9647,1.9647,0,0,0-2.0425-1.8762H556.54a1.9646,1.9646,0,0,0-2.0425,1.8762v18.7625a1.9646,1.9646,0,0,0,2.0425,1.8763h10.2123Z" transform="translate(-104.3517 -106.0539)"/><polygon class="cls-2" points="470.57 105.269 467.925 102.839 466.485 104.162 470.57 107.914 478.74 100.409 477.3 99.087 470.57 105.269"/><path class="cls-2" d="M565.4393,209.294l-3.4536-1.618a5.3463,5.3463,0,0,1-3.2571-4.7695v-6.3874a1.0584,1.0584,0,0,1,1.1185-.9827h11.1844a1.0584,1.0584,0,0,1,1.1185.9827v6.3874a5.3462,5.3462,0,0,1-3.2571,4.7694Zm-5.5922-12.7749v6.3874a4.3743,4.3743,0,0,0,2.665,3.9024l2.9272,1.3714,2.9272-1.3714a4.3743,4.3743,0,0,0,2.665-3.9024v-6.3874Z" transform="translate(-104.3517 -106.0539)"/><polygon class="cls-3" points="792.569 72.464 1097.989 72.747 1098.673 120.464 792.569 120.464 792.569 72.464"/><text class="cls-12" transform="translate(847.3194 100.1975)">Infrastructure - Ops access group</text><rect class="cls-3" x="792.1626" y="72.4645" width="48" height="48"/><path class="cls-2" d="M911.3541,205.5184h-2v-2a3.0033,3.0033,0,0,1,3-3h5v2h-5a1.0011,1.0011,0,0,0-1,1Z" transform="translate(-104.3517 -106.0539)"/><path class="cls-2" d="M915.3541,199.5184a4,4,0,1,1,4-4A4,4,0,0,1,915.3541,199.5184Zm0-6a2,2,0,1,0,2,2A2,2,0,0,0,915.3541,193.5184Z" transform="translate(-104.3517 -106.0539)"/><path class="cls-2" d="M923.3541,206.5184a4,4,0,1,1,4-4A4,4,0,0,1,923.3541,206.5184Zm0-6a2,2,0,1,0,2,2A2,2,0,0,0,923.3541,200.5184Z" transform="translate(-104.3517 -106.0539)"/><path class="cls-2" d="M929.3541,212.5184h-2v-2a1.0011,1.0011,0,0,0-1-1h-6a1.0011,1.0011,0,0,0-1,1v2h-2v-2a3.0033,3.0033,0,0,1,3-3h6a3.0033,3.0033,0,0,1,3,3Z" transform="translate(-104.3517 -106.0539)"/><path class="cls-2" d="M911.3541,216.5184h-4a2.0021,2.0021,0,0,1-2-2v-24a2.0021,2.0021,0,0,1,2-2h4v2h-4v24h4Z" transform="translate(-104.3517 -106.0539)"/><path class="cls-2" d="M931.3541,216.5184h-4v-2h4v-24h-4v-2h4a2.002,2.002,0,0,1,2,2v24A2.0021,2.0021,0,0,1,931.3541,216.5184Z" transform="translate(-104.3517 -106.0539)"/><g id="application--virtual"><rect class="cls-13" x="509.0162" y="243.6061" width="4" height="4"/><rect class="cls-13" x="503.0162" y="243.6061" width="4" height="4"/><rect class="cls-13" x="509.0162" y="249.6061" width="4" height="4"/><rect class="cls-13" x="503.0162" y="249.6061" width="4" height="4"/><path class="cls-13" d="M620.8679,355.66h-.5v-2h.5a5.4961,5.4961,0,0,0,.377-10.98l-.8365-.0566-.09-.834a7.9979,7.9979,0,0,0-15.9014,0l-.09.834-.8365.0566a5.4961,5.4961,0,0,0,.3774,10.98h.5v2h-.5a7.4964,7.4964,0,0,1-1.3218-14.876,9.9992,9.9992,0,0,1,19.6436,0,7.4964,7.4964,0,0,1-1.3218,14.876Z" transform="translate(-104.3517 -106.0539)"/><rect id="_Transparent_Rectangle_" data-name=" Transparent Rectangle " class="cls-14" x="492.0162" y="224.6061" width="32" height="32"/></g><g id="application--virtual-2" data-name="application--virtual"><rect class="cls-13" x="510.0155" y="305.0168" width="4" height="4"/><rect class="cls-13" x="504.0155" y="305.0168" width="4" height="4"/><rect class="cls-13" x="510.0155" y="311.0168" width="4" height="4"/><rect class="cls-13" x="504.0155" y="311.0168" width="4" height="4"/><path class="cls-13" d="M621.8673,417.0707h-.5v-2h.5a5.4961,5.4961,0,0,0,.377-10.9795l-.8365-.0566-.09-.834a7.9979,7.9979,0,0,0-15.9014,0l-.09.834-.8365.0566a5.4961,5.4961,0,0,0,.3774,10.9795h.5v2h-.5a7.4964,7.4964,0,0,1-1.3218-14.876,9.9992,9.9992,0,0,1,19.6436,0,7.4964,7.4964,0,0,1-1.3218,14.876Z" transform="translate(-104.3517 -106.0539)"/><rect id="_Transparent_Rectangle_2" data-name=" Transparent Rectangle " class="cls-14" x="493.0155" y="286.0168" width="32" height="32"/></g><text class="cls-15" transform="translate(101.6749 141.5129)">Application 1</text><text class="cls-15" transform="translate(101.6749 173.7668)">Application 2</text><text class="cls-15" transform="translate(101.6753 206.0204)">Application 3</text><text class="cls-15" transform="translate(101.6752 238.2736)">Application 4</text><path id="word--cloud" class="cls-16" d="M326.5116,391.0888H193.5954c-49.3688,0-89.2437-42.875-89.2437-95.9583s39.8749-95.9583,89.2437-95.9583a66.9255,66.9255,0,0,1,14.241,1.0208c15.1905-20.4167,37.9761-31.6458,61.7111-31.6458,40.8242,0,74.0533,32.6666,78.8,75.5416,28.482,10.2084,48.4195,38.7917,48.4195,71.4584C396.7673,357.4013,365.437,391.0888,326.5116,391.0888Zm-132.9162-183.75c-45.5712,0-81.6485,39.8125-81.6485,87.7917,0,49,37.0267,87.7917,81.6485,87.7917H326.5116c35.1278,0,62.6605-30.625,62.6605-67.375,0-29.6042-18.9881-56.1459-45.5713-65.3334-.9494,0-1.8988-2.0416-2.8482-3.0625-3.7976-40.8333-34.1785-71.4583-72.1545-71.4583-22.7856,0-43.6725,11.2292-57.9135,30.625-.9494,1.0208-1.8988,2.0417-3.7976,1.0208Z" transform="translate(-104.3517 -106.0539)"/></g><g id="Text"><text class="cls-12" transform="translate(1197.7323 100.1252)">App 1 - Ops access group</text><text class="cls-12" transform="translate(496.6217 100.1252)">Infrastructure - trusted profile</text><text class="cls-17" transform="translate(466.42 32.4123)">Workload account</text><text class="cls-18" transform="translate(496.5767 176.1233)">Infrastructure - workload VPC</text><text class="cls-15" transform="translate(540.1645 242.5934)">N<tspan class="cls-19" x="9.8979" y="0">e</tspan><tspan x="17.5137" y="0">w application 1</tspan></text><text class="cls-15" transform="translate(540.5143 300.6102)">N<tspan class="cls-19" x="9.8979" y="0">e</tspan><tspan x="17.5137" y="0">w application 2</tspan></text><text class="cls-20" transform="translate(53.8955 403.014)">Exi<tspan class="cls-21" x="21.4395" y="0">s</tspan><tspan x="29.1201" y="0">ting apps depl</tspan><tspan class="cls-22" x="130.4141" y="0">o</tspan><tspan x="139.2944" y="0">yment</tspan></text><text class="cls-20" transform="translate(426.7823 403.014)">N<tspan class="cls-23" x="11.3115" y="0">e</tspan><tspan x="20.0156" y="0">w apps depl</tspan><tspan class="cls-23" x="106.4463" y="0">o</tspan><tspan class="cls-24" x="115.3262" y="0">yment</tspan></text></g></svg>