<svg xmlns="http://www.w3.org/2000/svg" width="975.6879" height="456.4084" viewBox="0 0 975.6879 456.4084"><defs><style>.cls-1,.cls-10,.cls-12,.cls-13,.cls-8,.cls-9{fill:none;}.cls-1{stroke:#010101;}.cls-1,.cls-10,.cls-11,.cls-13,.cls-14,.cls-3,.cls-5,.cls-7,.cls-8,.cls-9{stroke-miterlimit:10;}.cls-2,.cls-23,.cls-24{fill:#010101;}.cls-11,.cls-3{fill:#eef4fb;}.cls-3{stroke:#eef5fb;}.cls-14,.cls-4,.cls-5{fill:#3553a4;}.cls-10,.cls-11,.cls-13,.cls-5,.cls-7,.cls-8,.cls-9{stroke:#3553a4;}.cls-6,.cls-7{fill:#fff;}.cls-9{stroke-dasharray:4.0407 4.0407;}.cls-10{stroke-dasharray:4 4;}.cls-13{fill-rule:evenodd;}.cls-14{stroke:#4267b1;}.cls-15,.cls-23{font-size:16px;}.cls-15,.cls-25{fill:#231f20;}.cls-15,.cls-24,.cls-25{font-family:IBMPlexSans, IBM Plex Sans;}.cls-16{letter-spacing:-0.007em;}.cls-17{letter-spacing:-0.005em;}.cls-18{letter-spacing:0em;}.cls-19{letter-spacing:-0.015em;}.cls-20{letter-spacing:-0.006em;}.cls-21{letter-spacing:-0.005em;}.cls-22{letter-spacing:0em;}.cls-23{font-family:IBMPlexSans-SemiBold, IBM Plex Sans;font-weight:600;}.cls-24,.cls-25{font-size:14px;}.cls-26{letter-spacing:-0.005em;}.cls-27{letter-spacing:0.01em;}.cls-28{letter-spacing:0em;}.cls-29{letter-spacing:-0.006em;}</style></defs><g id="Background"><line class="cls-1" x1="422.999" y1="278.492" x2="91.4986" y2="278.492"/><polygon class="cls-2" points="421.832 274.503 428.74 278.492 421.832 282.481 421.832 274.503"/><line class="cls-1" x1="422.999" y1="186.3783" x2="140.4201" y2="186.3783"/><polygon class="cls-2" points="421.832 182.39 428.74 186.378 421.832 190.367 421.832 182.39"/><line class="cls-1" x1="422.999" y1="232.5346" x2="270.5104" y2="232.5346"/><polygon class="cls-2" points="421.832 228.546 428.74 232.534 421.832 236.523 421.832 228.546"/><line class="cls-1" x1="422.999" y1="256.0204" x2="270.5104" y2="256.0204"/><polygon class="cls-2" points="421.832 252.032 428.74 256.02 421.832 260.009 421.832 252.032"/><rect class="cls-3" x="437.1465" y="0.5" width="538.0413" height="416.3912"/><rect class="cls-4" x="432.1981" y="0.339" width="48" height="48"/><rect class="cls-5" x="432.71" y="48.339" width="3" height="368.3912"/><path class="cls-6" d="M532.54,79.8629h10.971v2.0356H532.54Zm0,5.0889h12.9657v2.0356H532.54Z" transform="translate(-84.3212 -56.5793)"/><path class="cls-6" d="M552.4876,69.6851H528.5509a2.0154,2.0154,0,0,0-1.9947,2.0355V92.0763a2.0154,2.0154,0,0,0,1.9947,2.0355h23.9367a2.0154,2.0154,0,0,0,1.9948-2.0355V71.7206A2.0154,2.0154,0,0,0,552.4876,69.6851Zm0,2.0355v2.0356H528.5509V71.7206ZM528.5509,92.0763V75.7918h23.9367V92.0763Z" transform="translate(-84.3212 -56.5793)"/><rect class="cls-7" x="490.1672" y="219.8519" width="309.4136" height="176.1676"/><rect class="cls-6" x="506.8774" y="278.4293" width="282.8062" height="48.0003"/><polyline class="cls-8" points="506.889 280.494 506.89 278.494 508.89 278.493"/><line class="cls-9" x1="512.931" y1="278.4909" x2="785.6762" y2="278.3667"/><polyline class="cls-8" points="787.697 278.366 789.697 278.365 789.695 280.365"/><line class="cls-10" x1="789.6933" y1="284.3649" x2="789.6729" y2="322.3652"/><polyline class="cls-8" points="789.672 324.365 789.671 326.365 787.671 326.366"/><line class="cls-9" x1="783.6301" y1="326.3679" x2="510.8849" y2="326.4922"/><polyline class="cls-8" points="508.865 326.493 506.865 326.494 506.866 324.494"/><line class="cls-10" x1="506.8678" y1="320.494" x2="506.8881" y2="282.4937"/><rect class="cls-6" x="506.8471" y="334.8274" width="282.8062" height="48.0003"/><polyline class="cls-8" points="506.859 336.892 506.86 334.892 508.86 334.891"/><line class="cls-9" x1="512.9007" y1="334.8891" x2="785.6459" y2="334.7648"/><polyline class="cls-8" points="787.666 334.764 789.666 334.763 789.665 336.763"/><line class="cls-10" x1="789.663" y1="340.763" x2="789.6426" y2="378.7632"/><polyline class="cls-8" points="789.642 380.763 789.64 382.763 787.64 382.764"/><line class="cls-9" x1="783.5998" y1="382.766" x2="510.8546" y2="382.8903"/><polyline class="cls-8" points="508.834 382.891 506.834 382.892 506.835 380.892"/><line class="cls-10" x1="506.8375" y1="376.8921" x2="506.8579" y2="338.8918"/><rect class="cls-11" x="505.5118" y="278.492" width="48" height="48"/><rect class="cls-11" x="505.5118" y="334.8897" width="48" height="48"/><rect class="cls-4" x="490.089" y="219.8519" width="48" height="48"/><path class="cls-6" d="M605.6261,307.8246,592.212,294.4105v-6.5859h-8v8h6.5859l13.4141,13.4141v6.5859h8v-8Zm-15.4141-14h-4v-4h4Zm20,20h-4v-4h4Z" transform="translate(-84.3212 -56.5793)"/><path class="cls-6" d="M612.212,291.8246a3.9915,3.9915,0,0,0-7.8579-1H595.212v2h9.1421a3.9948,3.9948,0,0,0,2.8579,2.8579v9.1421h2v-9.1421A3.9962,3.9962,0,0,0,612.212,291.8246Zm-4,2a2,2,0,1,1,2-2A2,2,0,0,1,608.212,293.8246Z" transform="translate(-84.3212 -56.5793)"/><path class="cls-6" d="M601.212,310.8246H592.07a3.9942,3.9942,0,0,0-2.8579-2.8579v-9.1421h-2v9.1421a3.9915,3.9915,0,1,0,4.8579,4.8579h9.1421Zm-13,3a2,2,0,1,1,2-2A2,2,0,0,1,588.212,313.8246Z" transform="translate(-84.3212 -56.5793)"/><path class="cls-4" d="M612.6462,345.516a8,8,0,1,0,8,8A8,8,0,0,0,612.6462,345.516Zm5.91,7h-2.4376a15.241,15.241,0,0,0-.7917-4.36A6.0084,6.0084,0,0,1,618.5562,352.516Zm-5.888,6.999h-.0076c-.3813-.1206-1.3091-1.8213-1.479-4.999h2.9292C613.9414,357.6923,613.0173,359.393,612.6682,359.515Zm-1.4866-6.999c.1694-3.1763,1.0935-4.877,1.4426-4.999h.0076c.3813.1206,1.3091,1.8213,1.479,4.999Zm-1.2161-4.36a15.2479,15.2479,0,0,0-.7917,4.36h-2.4376A6.0089,6.0089,0,0,1,609.9655,348.156Zm-3.2293,6.36h2.4373a15.2485,15.2485,0,0,0,.7917,4.36A6.0089,6.0089,0,0,1,606.7362,354.516Zm8.59,4.36a15.2418,15.2418,0,0,0,.7924-4.36h2.4376a6.0087,6.0087,0,0,1-3.2293,4.36Z" transform="translate(-84.3212 -56.5793)"/><path class="cls-4" d="M624.6462,373.516h-24a2.0021,2.0021,0,0,1-2-2v-6a2.0021,2.0021,0,0,1,2-2h24a2.002,2.002,0,0,1,2,2v6A2.0021,2.0021,0,0,1,624.6462,373.516Zm-24-8v6h24v-6Z" transform="translate(-84.3212 -56.5793)"/><circle class="cls-4" cx="519.325" cy="311.9367" r="1"/><path id="_Path_" data-name=" Path " class="cls-4" d="M616.6462,426.4691h-13a2.006,2.006,0,0,1-2-2v-13h2v13h13Z" transform="translate(-84.3212 -56.5793)"/><path id="_Compound_Path_" data-name=" Compound Path " class="cls-4" d="M620.0462,421.4691l-4-4a3.6052,3.6052,0,0,0,.6-2,4.0117,4.0117,0,0,0-4-4,3.6052,3.6052,0,0,0-2,.6l-4-4v-6.6h-8v8h6.6l4,4a3.6057,3.6057,0,0,0-.6,2,4.0119,4.0119,0,0,0,4,4,3.6065,3.6065,0,0,0,2-.6l4,4v6.6h8v-8Zm-15.4-14h-4v-4h4Zm8,10a2,2,0,1,1,2-2A2,2,0,0,1,612.6462,417.4691Zm12,10h-4v-4h4Z" transform="translate(-84.3212 -56.5793)"/><path id="_Path_2" data-name=" Path 2" class="cls-4" d="M621.6462,419.4691h2v-13a2.0058,2.0058,0,0,0-2-2h-13v2h13Z" transform="translate(-84.3212 -56.5793)"/><polygon class="cls-7" points="491.445 69.62 711.645 69.903 712.138 117.62 491.445 117.62 491.445 69.62"/><rect class="cls-5" x="491.0383" y="69.62" width="48" height="48"/><polygon class="cls-7" points="722.434 70.067 942.635 70.349 943.128 118.067 722.434 118.067 722.434 70.067"/><rect class="cls-5" x="722.0278" y="70.0665" width="48" height="48"/><path class="cls-6" d="M609.26,155.5459l3.5-3.5a1.9334,1.9334,0,0,0,.0668-2.7333q-.0325-.0342-.0668-.0667l-5.3-5.3,1.4-1.4a.9027.9027,0,0,0,.5.1,2,2,0,1,0-2-2,.9027.9027,0,0,0,.1.5l-6.1,6.1a3.633,3.633,0,0,0-4,0l-3.3-3.3,5.3-5.3,3.5,3.5,1.4-1.4-3.5-3.5a1.9332,1.9332,0,0,0-2.7332-.0668q-.0342.0325-.0668.0668l-5.3,5.3-1.4-1.4a.901.901,0,0,0,.1-.5,2,2,0,1,0-2,2,.9024.9024,0,0,0,.5-.1l6.1,6.1a3.6333,3.6333,0,0,0,0,4l-3.3,3.3-5.3-5.3,3.5-3.5-1.4-1.4-3.5,3.5a1.9332,1.9332,0,0,0-.0667,2.7332q.0326.0342.0667.0668l5.3,5.3-1.4,1.4a.9007.9007,0,0,0-.5-.1,2,2,0,1,0,2,2,.9007.9007,0,0,0-.1-.5l6.1-6.1a3.6333,3.6333,0,0,0,4,0l3.3,3.3-5.3,5.3-3.5-3.5-1.4,1.4,3.5,3.5a1.9334,1.9334,0,0,0,2.7333.0667q.0342-.0325.0667-.0667l5.3-5.3,1.4,1.4c0,.2-.1.3-.1.5a2,2,0,1,0,2-2,.901.901,0,0,0-.5.1l-6.1-6.1a3.633,3.633,0,0,0,0-4l3.3-3.3,5.3,5.3-3.5,3.5Zm-9.9-2.9a2,2,0,1,1,2-2A2,2,0,0,1,599.36,152.6459Z" transform="translate(-84.3212 -56.5793)"/><path class="cls-6" d="M830.1824,147.6459a2.9129,2.9129,0,0,0,2.8,2,3,3,0,0,0,0-6,2.9129,2.9129,0,0,0-2.8,2h-12.2a2.0059,2.0059,0,0,0-2,2v6h-3v2h3v6a2.0059,2.0059,0,0,0,2,2h14a2.0059,2.0059,0,0,0,2-2v-4h-2v4h-14v-14Zm2.8-2a1,1,0,1,1-1,1A.9448.9448,0,0,1,832.9824,145.6459Z" transform="translate(-84.3212 -56.5793)"/><path class="cls-6" d="M841.9824,145.6459v-6a2.0059,2.0059,0,0,0-2-2h-14a2.0059,2.0059,0,0,0-2,2v4h2v-4h14v14h-12.2a2.9129,2.9129,0,0,0-2.8-2,3,3,0,0,0,0,6,2.9129,2.9129,0,0,0,2.8-2h12.2a2.0059,2.0059,0,0,0,2-2v-6h3v-2Zm-17,10a1,1,0,1,1,1-1A.9448.9448,0,0,1,824.9824,155.6459Z" transform="translate(-84.3212 -56.5793)"/><rect id="_Transparent_Rectangle_" data-name="&lt;Transparent Rectangle&gt;" class="cls-12" x="728.6611" y="78.0666" width="32" height="32"/><polygon class="cls-7" points="491.382 145.786 932.652 146.069 933.64 193.786 491.382 193.786 491.382 145.786"/><rect class="cls-5" x="490.9755" y="145.7859" width="48" height="48"/><path class="cls-6" d="M606.8365,238.5656l-1.83-.8715a4.4423,4.4423,0,0,1-2.5273-3.9215v-5.6645h8.7146v5.6645a4.292,4.292,0,0,1-2.5272,3.9215Zm-2.6144-8.7146v3.9216a2.6244,2.6244,0,0,0,1.4815,2.3529l1.1329.5229,1.1329-.5229a2.7266,2.7266,0,0,0,1.4815-2.3529V229.851Z" transform="translate(-84.3212 -56.5793)"/><circle class="cls-6" cx="519.9009" cy="164.5571" r="1.7429"/><path class="cls-6" d="M603.3507,214.1648a7.81,7.81,0,0,0-7.8431,7.8431,6.4992,6.4992,0,0,0,.3485,2.2658l-9.0631,9.0632v5.2287h5.2287l8.7146-8.7146-1.22-1.22-2.44,2.44-1.22-1.22-1.22,1.22,1.22,1.22-1.3943,1.3943-1.22-1.22-1.22,1.22,1.22,1.22-1.9172,1.9172h-2.7887V234.034l8.54-8.54.6972-.6971-.2615-1.0458a6.0972,6.0972,0,1,1,11.939-1.7429,5.951,5.951,0,0,1-1.1329,3.4858h2.0043a7.861,7.861,0,0,0,.7844-3.4858A7.6832,7.6832,0,0,0,603.3507,214.1648Z" transform="translate(-84.3212 -56.5793)"/><polyline class="cls-13" points="493.43 141.183 938.004 141.183 938.004 192.635"/><polyline class="cls-13" points="497.331 136.183 942.563 136.183 942.563 191.358"/><rect class="cls-7" x="816.06" y="219.8519" width="125.7322" height="176.1676"/><rect class="cls-14" x="853.5355" y="245.2503" width="48" height="48"/><path class="cls-6" d="M953.8567,313.83v4h-4v-4Zm2-2h-8v8h8Zm8,2v4h-4v-4Zm2-2h-8v8h8Zm8,2v4h-4v-4Zm2-2h-8v8h8Zm-22,12v4h-4v-4Zm2-2h-8v8h8Zm8,2v4h-4v-4Zm2-2h-8v8h8Zm8,2v4h-4v-4Zm2-2h-8v8h8Zm-22,12v4h-4v-4Zm2-2h-8v8h8Zm8,2v4h-4v-4Zm2-2h-8v8h8Zm8,2v4h-4v-4Zm2-2h-8v8h8Z" transform="translate(-84.3212 -56.5793)"/><rect class="cls-5" x="97.8163" y="166.3782" width="48" height="48"/><path class="cls-6" d="M205.9709,243.9576a2.9129,2.9129,0,0,0,2.8,2,3,3,0,1,0,0-6,2.9129,2.9129,0,0,0-2.8,2h-12.2a2.0059,2.0059,0,0,0-2,2v6h-3v2h3v6a2.0059,2.0059,0,0,0,2,2h14a2.0059,2.0059,0,0,0,2-2v-4h-2v4h-14v-14Zm2.8-2a1,1,0,1,1-1,1A.9448.9448,0,0,1,208.7709,241.9576Z" transform="translate(-84.3212 -56.5793)"/><path class="cls-6" d="M217.7709,241.9576v-6a2.0059,2.0059,0,0,0-2-2h-14a2.0059,2.0059,0,0,0-2,2v4h2v-4h14v14h-12.2a2.9129,2.9129,0,0,0-2.8-2,3,3,0,0,0,0,6,2.9129,2.9129,0,0,0,2.8-2h12.2a2.0059,2.0059,0,0,0,2-2v-6h3v-2Zm-17,10a1,1,0,1,1,1-1A.9448.9448,0,0,1,200.7709,251.9576Z" transform="translate(-84.3212 -56.5793)"/><rect id="_Transparent_Rectangle_2" data-name="&lt;Transparent Rectangle&gt;" class="cls-12" x="104.4497" y="174.3783" width="32" height="32"/><rect class="cls-5" x="50.3409" y="246.5346" width="48" height="48"/><path class="cls-6" d="M166.2019,339.3143l-1.83-.8715a4.4423,4.4423,0,0,1-2.5272-3.9215v-5.6645h8.7146v5.6645a4.292,4.292,0,0,1-2.5273,3.9215ZM163.5875,330.6v3.9216a2.6242,2.6242,0,0,0,1.4815,2.3529l1.1329.5229,1.1329-.5229a2.7267,2.7267,0,0,0,1.4814-2.3529V330.6Z" transform="translate(-84.3212 -56.5793)"/><circle class="cls-6" cx="79.2663" cy="265.3058" r="1.7429"/><path class="cls-6" d="M162.716,314.9135a7.8105,7.8105,0,0,0-7.8431,7.8431,6.4992,6.4992,0,0,0,.3486,2.2658l-9.0632,9.0631v5.2288h5.2288l8.7146-8.7146-1.22-1.22-2.44,2.44-1.22-1.22-1.22,1.22,1.22,1.22-1.3943,1.3943-1.22-1.22-1.22,1.22,1.22,1.22-1.9172,1.9172h-2.7886v-2.7887l8.54-8.54.6972-.6971-.2614-1.0458a6.0971,6.0971,0,1,1,11.9389-1.7429,5.951,5.951,0,0,1-1.1329,3.4858h2.0044a7.8612,7.8612,0,0,0,.7843-3.4858A7.6831,7.6831,0,0,0,162.716,314.9135Z" transform="translate(-84.3212 -56.5793)"/><path id="word--cloud" class="cls-2" d="M306.4811,392.9035H173.5649c-49.3688,0-89.2437-42.875-89.2437-95.9584s39.8749-95.9583,89.2437-95.9583a66.9255,66.9255,0,0,1,14.241,1.0208c15.19-20.4166,37.9761-31.6458,61.7111-31.6458,40.8242,0,74.0533,32.6667,78.8,75.5417,28.482,10.2083,48.4194,38.7916,48.4194,71.4583C376.7367,359.216,345.4065,392.9035,306.4811,392.9035Zm-132.9162-183.75c-45.5712,0-81.6485,39.8125-81.6485,87.7916,0,49,37.0267,87.7917,81.6485,87.7917H306.4811c35.1278,0,62.66-30.625,62.66-67.375,0-29.6042-18.988-56.1458-45.5712-65.3333-.9494,0-1.8988-2.0417-2.8482-3.0625-3.7976-40.8334-34.1785-71.4584-72.1545-71.4584-22.7856,0-43.6725,11.2292-57.9135,30.625-.9494,1.0209-1.8988,2.0417-3.7976,1.0209Z" transform="translate(-84.3212 -56.5793)"/></g><g id="Text"><text class="cls-15" transform="translate(58.8449 452.4885)">Exi<tspan class="cls-16" x="21.4395" y="0">s</tspan><tspan x="29.1201" y="0">ting cloud depl</tspan><tspan class="cls-17" x="135.2461" y="0">o</tspan><tspan class="cls-18" x="144.126" y="0">yment</tspan></text><text class="cls-15" transform="translate(446.8128 452.4886)"><tspan class="cls-19">R</tspan><tspan x="10" y="0">e</tspan><tspan class="cls-20" x="18.7842" y="0">c</tspan><tspan x="26.7358" y="0">ommended depl</tspan><tspan class="cls-21" x="144.3179" y="0">o</tspan><tspan class="cls-22" x="153.1982" y="0">yment</tspan></text><rect id="_Transparent_Rectangle_3" data-name=" Transparent Rectangle " class="cls-12" x="512.325" y="342.8897" width="32" height="32"/><text class="cls-23" transform="translate(488.6012 32.7512)">Network and services hub account</text><text class="cls-24" transform="translate(546.1661 248.2116)">VPC - Tools</text><text class="cls-24" transform="translate(559.2506 306.8987)">Custom DNS resolver</text><text class="cls-24" transform="translate(559.2511 363.2964)">Shared services VPE</text><text class="cls-24" transform="translate(546.1944 98.8669)">Transit Gateway</text><text class="cls-24" transform="translate(777.1844 99.1985)">Direct Link</text><text class="cls-24" transform="translate(546.1319 174.9939)">Hyper Protect Crypto Services</text><text class="cls-24" transform="translate(855.2828 320.7239)">Shared <tspan x="-3.5352" y="16">services</tspan></text><text class="cls-25" transform="translate(159.0783 235.4132)">Sha<tspan class="cls-26" x="23.5615" y="0">r</tspan><tspan x="28.6299" y="0">ed se</tspan><tspan class="cls-27" x="62.2432" y="0">r</tspan><tspan class="cls-28" x="67.521" y="0">vi</tspan><tspan class="cls-29" x="77.9092" y="0">c</tspan><tspan x="84.8667" y="0">e 1</tspan></text><text class="cls-25" transform="translate(158.9729 259.5064)">Sha<tspan class="cls-26" x="23.5615" y="0">r</tspan><tspan x="28.6299" y="0">ed se</tspan><tspan class="cls-27" x="62.2432" y="0">r</tspan><tspan class="cls-28" x="67.521" y="0">vi</tspan><tspan class="cls-29" x="77.9092" y="0">c</tspan><tspan x="84.8667" y="0">e 2</tspan></text></g></svg>