<svg xmlns="http://www.w3.org/2000/svg" width="1483.2308" height="406.9338" viewBox="0 0 1483.2308 406.9338"><defs><style>.cls-1,.cls-9{fill:#eef4fb;}.cls-1{stroke:#eef5fb;}.cls-1,.cls-10,.cls-11,.cls-13,.cls-14,.cls-22,.cls-3,.cls-4,.cls-6,.cls-7,.cls-8,.cls-9{stroke-miterlimit:10;}.cls-2,.cls-4{fill:#3553a4;}.cls-10,.cls-3,.cls-5{fill:#fff;}.cls-10,.cls-11,.cls-3,.cls-4,.cls-6,.cls-7,.cls-8,.cls-9{stroke:#3553a4;}.cls-11,.cls-14,.cls-22,.cls-6,.cls-7,.cls-8{fill:none;}.cls-7{stroke-dasharray:4.0039 4.0039;}.cls-8{stroke-dasharray:3.9866 3.9866;}.cls-10,.cls-11{fill-rule:evenodd;}.cls-12,.cls-15,.cls-25{font-size:14px;}.cls-12,.cls-13,.cls-23,.cls-24,.cls-25{fill:#010101;}.cls-12{font-family:IBMPlexSans-Italic, IBM Plex Sans;font-style:italic;}.cls-13,.cls-14{stroke:#1c75bc;}.cls-15,.cls-26{fill:#231f20;}.cls-15,.cls-25,.cls-26{font-family:IBMPlexSans, IBM Plex Sans;}.cls-16{letter-spacing:-0.01em;}.cls-17{letter-spacing:-0.005em;}.cls-18{letter-spacing:0em;}.cls-19{letter-spacing:-0.006em;}.cls-20{letter-spacing:-0.005em;}.cls-21{letter-spacing:-0.006em;}.cls-22{stroke:#010101;}.cls-24,.cls-26{font-size:16px;}.cls-24{font-family:IBMPlexSans-SemiBold, IBM Plex Sans;font-weight:600;}.cls-27{letter-spacing:-0.007em;}.cls-28{letter-spacing:-0.005em;}.cls-29{letter-spacing:0em;}.cls-30{letter-spacing:-0.015em;}.cls-31{letter-spacing:-0.006em;}.cls-32{letter-spacing:-0.005em;}.cls-33{letter-spacing:0em;}</style></defs><g id="Background"><rect class="cls-1" x="411.986" y="1.9667" width="1070.7447" height="360.3739"/><rect class="cls-2" x="405.8882" width="48" height="48"/><polygon class="cls-3" points="437.026 144.929 1122.737 146.115 1124.272 346.269 437.026 346.269 437.026 144.929"/><rect class="cls-2" x="437.0258" y="145.202" width="48" height="48"/><rect class="cls-4" x="514.8802" y="154.0539" width="2.5859" height="314.3405" transform="translate(923.8663 516.3945) rotate(180)"/><path class="cls-5" d="M531.134,127.5939h10.971v2.0355H531.134Zm0,5.0889H544.1v2.0355H531.134Z" transform="translate(-108.4801 -106.0539)"/><path class="cls-5" d="M551.0813,117.4161H527.1446a2.0154,2.0154,0,0,0-1.9947,2.0355v20.3556a2.0154,2.0154,0,0,0,1.9947,2.0356h23.9367a2.0155,2.0155,0,0,0,1.9947-2.0356V119.4516A2.0154,2.0154,0,0,0,551.0813,117.4161Zm0,2.0355v2.0356H527.1446v-2.0356Zm-23.9367,20.3556V123.5227h23.9367v16.2845Z" transform="translate(-108.4801 -106.0539)"/><polygon class="cls-5" points="480.243 214.327 784.533 214.131 784.494 261.984 480.204 262.179 480.243 214.327"/><polyline class="cls-6" points="480.242 216.327 480.243 214.327 482.243 214.325"/><line class="cls-7" x1="486.2471" y1="214.3228" x2="780.5314" y2="214.1336"/><polyline class="cls-6" points="782.533 214.132 784.533 214.131 784.532 216.131"/><line class="cls-8" x1="784.5285" y1="220.1176" x2="784.4975" y2="257.9903"/><polyline class="cls-6" points="784.496 259.984 784.494 261.984 782.494 261.985"/><line class="cls-7" x1="778.4904" y1="261.9874" x2="484.206" y2="262.1767"/><polyline class="cls-6" points="482.204 262.178 480.204 262.179 480.206 260.179"/><line class="cls-8" x1="480.209" y1="256.1927" x2="480.24" y2="218.32"/><rect class="cls-9" x="480.1929" y="214.3188" width="48" height="48"/><polygon class="cls-5" points="479.889 274.329 784.179 274.133 784.14 321.986 479.85 322.182 479.889 274.329"/><polyline class="cls-6" points="479.887 276.329 479.889 274.329 481.889 274.328"/><line class="cls-7" x1="485.8928" y1="274.3252" x2="780.1771" y2="274.1358"/><polyline class="cls-6" points="782.179 274.135 784.179 274.133 784.177 276.133"/><line class="cls-8" x1="784.1741" y1="280.1198" x2="784.1432" y2="317.9925"/><polyline class="cls-6" points="784.142 319.986 784.14 321.986 782.14 321.987"/><line class="cls-7" x1="778.136" y1="321.9897" x2="483.8517" y2="322.179"/><polyline class="cls-6" points="481.85 322.18 479.85 322.182 479.851 320.182"/><line class="cls-8" x1="479.8547" y1="316.195" x2="479.8857" y2="278.3223"/><rect class="cls-9" x="479.8386" y="274.3211" width="48" height="48"/><rect class="cls-5" x="461.0259" y="180.2012" width="12" height="2"/><rect class="cls-5" x="461.0259" y="175.2012" width="12" height="2"/><rect class="cls-5" x="461.0259" y="170.2012" width="12" height="2"/><path class="cls-5" d="M565.506,285.2551h-4.5a7.4964,7.4964,0,0,1-1.3218-14.876,10,10,0,0,1,19.8218,1.876h-2a7.999,7.999,0,0,0-15.9507-.87l-.09.8335-.8363.0565a5.4962,5.4962,0,0,0,.377,10.98h4.5Z" transform="translate(-108.4801 -106.0539)"/><polyline class="cls-10" points="1143.276 63.969 1452.685 63.969 1452.685 115.884"/><polygon class="cls-3" points="1138.854 72.464 1444.088 72.747 1444.771 120.464 1138.854 120.464 1138.854 72.464"/><polyline class="cls-11" points="1140.354 67.969 1448.685 67.969 1448.685 118.215"/><rect class="cls-3" x="1138.4473" y="72.4645" width="48" height="48"/><path class="cls-2" d="M1261.7672,205.5184h-2v-2a3.0033,3.0033,0,0,1,3-3h5v2h-5a1.0011,1.0011,0,0,0-1,1Z" transform="translate(-108.4801 -106.0539)"/><path class="cls-2" d="M1265.7672,199.5184a4,4,0,1,1,4-4A4,4,0,0,1,1265.7672,199.5184Zm0-6a2,2,0,1,0,2,2A2,2,0,0,0,1265.7672,193.5184Z" transform="translate(-108.4801 -106.0539)"/><path class="cls-2" d="M1273.7672,206.5184a4,4,0,1,1,4-4A4,4,0,0,1,1273.7672,206.5184Zm0-6a2,2,0,1,0,2,2A2,2,0,0,0,1273.7672,200.5184Z" transform="translate(-108.4801 -106.0539)"/><path class="cls-2" d="M1279.7672,212.5184h-2v-2a1.0011,1.0011,0,0,0-1-1h-6a1.0011,1.0011,0,0,0-1,1v2h-2v-2a3.0033,3.0033,0,0,1,3-3h6a3.0033,3.0033,0,0,1,3,3Z" transform="translate(-108.4801 -106.0539)"/><path class="cls-2" d="M1261.7672,216.5184h-4a2.0021,2.0021,0,0,1-2-2v-24a2.002,2.002,0,0,1,2-2h4v2h-4v24h4Z" transform="translate(-108.4801 -106.0539)"/><path class="cls-2" d="M1281.7672,216.5184h-4v-2h4v-24h-4v-2h4a2.0021,2.0021,0,0,1,2,2v24A2.0021,2.0021,0,0,1,1281.7672,216.5184Z" transform="translate(-108.4801 -106.0539)"/><polygon class="cls-3" points="437.743 72.464 743.383 72.747 744.067 120.464 437.743 120.464 437.743 72.464"/><rect class="cls-3" x="437.3368" y="72.4645" width="48" height="48"/><rect class="cls-2" x="453.6039" y="96.3613" width="6.7107" height="0.9827"/><rect class="cls-2" x="453.6039" y="93.4132" width="6.7107" height="0.9827"/><path class="cls-2" d="M566.7522,211.7073H556.54V192.9448h24.51v9.3813h2.0425v-9.3813a1.9647,1.9647,0,0,0-2.0425-1.8762H556.54a1.9646,1.9646,0,0,0-2.0425,1.8762v18.7625a1.9646,1.9646,0,0,0,2.0425,1.8763h10.2123Z" transform="translate(-108.4801 -106.0539)"/><polygon class="cls-2" points="466.442 105.269 463.797 102.839 462.357 104.162 466.442 107.914 474.612 100.409 473.172 99.087 466.442 105.269"/><path class="cls-2" d="M565.4393,209.294l-3.4536-1.618a5.3463,5.3463,0,0,1-3.2571-4.7695v-6.3874a1.0584,1.0584,0,0,1,1.1185-.9827h11.1844a1.0584,1.0584,0,0,1,1.1185.9827v6.3874a5.3462,5.3462,0,0,1-3.2571,4.7694Zm-5.5922-12.7749v6.3874a4.3743,4.3743,0,0,0,2.665,3.9024l2.9272,1.3714,2.9272-1.3714a4.3743,4.3743,0,0,0,2.665-3.9024v-6.3874Z" transform="translate(-108.4801 -106.0539)"/><polygon class="cls-3" points="788.441 72.464 1093.861 72.747 1094.544 120.464 788.441 120.464 788.441 72.464"/><text class="cls-12" transform="translate(843.191 100.1975)">Infrastructure - Ops access group</text><rect class="cls-3" x="788.0342" y="72.4645" width="48" height="48"/><path class="cls-2" d="M911.3541,205.5184h-2v-2a3.0033,3.0033,0,0,1,3-3h5v2h-5a1.0011,1.0011,0,0,0-1,1Z" transform="translate(-108.4801 -106.0539)"/><path class="cls-2" d="M915.3541,199.5184a4,4,0,1,1,4-4A4,4,0,0,1,915.3541,199.5184Zm0-6a2,2,0,1,0,2,2A2,2,0,0,0,915.3541,193.5184Z" transform="translate(-108.4801 -106.0539)"/><path class="cls-2" d="M923.3541,206.5184a4,4,0,1,1,4-4A4,4,0,0,1,923.3541,206.5184Zm0-6a2,2,0,1,0,2,2A2,2,0,0,0,923.3541,200.5184Z" transform="translate(-108.4801 -106.0539)"/><path class="cls-2" d="M929.3541,212.5184h-2v-2a1.0011,1.0011,0,0,0-1-1h-6a1.0011,1.0011,0,0,0-1,1v2h-2v-2a3.0033,3.0033,0,0,1,3-3h6a3.0033,3.0033,0,0,1,3,3Z" transform="translate(-108.4801 -106.0539)"/><path class="cls-2" d="M911.3541,216.5184h-4a2.0021,2.0021,0,0,1-2-2v-24a2.0021,2.0021,0,0,1,2-2h4v2h-4v24h4Z" transform="translate(-108.4801 -106.0539)"/><path class="cls-2" d="M931.3541,216.5184h-4v-2h4v-24h-4v-2h4a2.002,2.002,0,0,1,2,2v24A2.0021,2.0021,0,0,1,931.3541,216.5184Z" transform="translate(-108.4801 -106.0539)"/><g id="application--virtual"><rect class="cls-13" x="504.8878" y="243.6061" width="4" height="4"/><rect class="cls-13" x="498.8878" y="243.6061" width="4" height="4"/><rect class="cls-13" x="504.8878" y="249.6061" width="4" height="4"/><rect class="cls-13" x="498.8878" y="249.6061" width="4" height="4"/><path class="cls-13" d="M620.8679,355.66h-.5v-2h.5a5.4961,5.4961,0,0,0,.377-10.98l-.8365-.0566-.09-.834a7.9979,7.9979,0,0,0-15.9014,0l-.09.834-.8365.0566a5.4961,5.4961,0,0,0,.3774,10.98h.5v2h-.5a7.4964,7.4964,0,0,1-1.3218-14.876,9.9992,9.9992,0,0,1,19.6436,0,7.4964,7.4964,0,0,1-1.3218,14.876Z" transform="translate(-108.4801 -106.0539)"/><rect id="_Transparent_Rectangle_" data-name=" Transparent Rectangle " class="cls-14" x="487.8878" y="224.6061" width="32" height="32"/></g><g id="application--virtual-2" data-name="application--virtual"><rect class="cls-13" x="505.8871" y="305.0168" width="4" height="4"/><rect class="cls-13" x="499.8871" y="305.0168" width="4" height="4"/><rect class="cls-13" x="505.8871" y="311.0168" width="4" height="4"/><rect class="cls-13" x="499.8871" y="311.0168" width="4" height="4"/><path class="cls-13" d="M621.8673,417.0707h-.5v-2h.5a5.4961,5.4961,0,0,0,.377-10.9795l-.8365-.0566-.09-.834a7.9979,7.9979,0,0,0-15.9014,0l-.09.834-.8365.0566a5.4961,5.4961,0,0,0,.3774,10.9795h.5v2h-.5a7.4964,7.4964,0,0,1-1.3218-14.876,9.9992,9.9992,0,0,1,19.6436,0,7.4964,7.4964,0,0,1-1.3218,14.876Z" transform="translate(-108.4801 -106.0539)"/><rect id="_Transparent_Rectangle_2" data-name=" Transparent Rectangle " class="cls-14" x="488.8871" y="286.0168" width="32" height="32"/></g><text class="cls-15" transform="translate(65.2381 130.7732)"><tspan class="cls-16">P</tspan><tspan class="cls-17" x="8.3438" y="0">r</tspan><tspan x="13.4121" y="0">oduction </tspan><tspan class="cls-17" x="71.875" y="0">r</tspan><tspan class="cls-18" x="76.9434" y="0">esou</tspan><tspan class="cls-17" x="107.2388" y="0">r</tspan><tspan class="cls-19" x="112.3071" y="0">c</tspan><tspan x="119.2646" y="0">e 1</tspan></text><text class="cls-15" transform="translate(65.2378 163.0271)">Nonp<tspan class="cls-20" x="33.8096" y="0">r</tspan><tspan x="38.8774" y="0">oduction </tspan><tspan class="cls-20" x="97.3408" y="0">r</tspan><tspan x="102.4087" y="0">esou</tspan><tspan class="cls-20" x="132.7046" y="0">r</tspan><tspan class="cls-21" x="137.7725" y="0">c</tspan><tspan x="144.7305" y="0">e 1</tspan></text><text class="cls-15" transform="translate(65.238 195.2807)"><tspan class="cls-16">P</tspan><tspan class="cls-17" x="8.3438" y="0">r</tspan><tspan x="13.4121" y="0">oduction </tspan><tspan class="cls-17" x="71.875" y="0">r</tspan><tspan class="cls-18" x="76.9434" y="0">esou</tspan><tspan class="cls-17" x="107.2388" y="0">r</tspan><tspan class="cls-19" x="112.3071" y="0">c</tspan><tspan x="119.2646" y="0">e 2</tspan></text><text class="cls-15" transform="translate(65.2381 227.5338)">Nonp<tspan class="cls-20" x="33.8096" y="0">r</tspan><tspan x="38.8774" y="0">oduction </tspan><tspan class="cls-20" x="97.3408" y="0">r</tspan><tspan x="102.4087" y="0">esou</tspan><tspan class="cls-20" x="132.7046" y="0">r</tspan><tspan class="cls-21" x="137.7725" y="0">c</tspan><tspan x="144.7305" y="0">e 2</tspan></text><line class="cls-22" x1="236.3967" y1="160.4924" x2="353.1925" y2="159.9776"/><line class="cls-22" x1="461.3996" y1="231.5123" x2="353.1925" y2="231.5123"/><polygon class="cls-23" points="459.941 226.526 468.575 231.512 459.941 236.498 459.941 226.526"/><line class="cls-22" x1="353.1925" y1="159.9776" x2="353.1925" y2="231.5123"/><line class="cls-22" x1="235.5014" y1="222.3942" x2="322.804" y2="221.9238"/><line class="cls-22" x1="461.0045" y1="293.4629" x2="322.804" y2="293.4629"/><polygon class="cls-23" points="459.546 288.477 468.18 293.462 459.546 298.449 459.546 288.477"/><line class="cls-22" x1="322.804" y1="221.9282" x2="322.804" y2="293.4629"/><path id="word--cloud" class="cls-23" d="M330.64,376.792H197.7238c-49.3688,0-89.2437-42.875-89.2437-95.9584s39.8749-95.9583,89.2437-95.9583a66.9255,66.9255,0,0,1,14.241,1.0208C227.1553,165.48,249.9409,154.25,273.6759,154.25c40.8242,0,74.0533,32.6667,78.8,75.5417C380.9582,240,400.8956,268.5836,400.8956,301.25,400.8956,343.1045,369.5654,376.792,330.64,376.792ZM197.7238,193.042c-45.5712,0-81.6485,39.8125-81.6485,87.7916,0,49,37.0267,87.7917,81.6485,87.7917H330.64c35.1278,0,62.66-30.625,62.66-67.375,0-29.6042-18.988-56.1458-45.5712-65.3333-.9494,0-1.8988-2.0417-2.8482-3.0625-3.7976-40.8334-34.1785-71.4584-72.1545-71.4584-22.7856,0-43.6725,11.2292-57.9135,30.625-.9494,1.0209-1.8988,2.0417-3.7976,1.0209Z" transform="translate(-108.4801 -106.0539)"/></g><g id="Text"><text class="cls-12" transform="translate(1193.6039 100.1252)">App 1 - Ops access group</text><text class="cls-12" transform="translate(492.4933 100.1252)">Infrastructure - trusted profile</text><text class="cls-24" transform="translate(462.2916 32.4123)">Nonproduction workload account</text><text class="cls-25" transform="translate(492.4484 176.1233)">Nonproduction infrastructure - workload VPC</text><text class="cls-15" transform="translate(536.0361 242.5934)">Nonp<tspan class="cls-20" x="33.8096" y="0">r</tspan><tspan x="38.8774" y="0">oduction </tspan><tspan class="cls-20" x="97.3408" y="0">r</tspan><tspan x="102.4087" y="0">esou</tspan><tspan class="cls-20" x="132.7046" y="0">r</tspan><tspan class="cls-21" x="137.7725" y="0">c</tspan><tspan x="144.7305" y="0">e 1</tspan></text><text class="cls-15" transform="translate(536.3859 300.6102)">Nonp<tspan class="cls-20" x="33.8096" y="0">r</tspan><tspan x="38.8774" y="0">oduction </tspan><tspan class="cls-20" x="97.3408" y="0">r</tspan><tspan x="102.4087" y="0">esou</tspan><tspan class="cls-20" x="132.7046" y="0">r</tspan><tspan class="cls-21" x="137.7725" y="0">c</tspan><tspan x="144.7305" y="0">e 2</tspan></text><text class="cls-26" transform="translate(56.7304 403.014)">Exi<tspan class="cls-27" x="21.4395" y="0">s</tspan><tspan x="29.1201" y="0">ting cloud depl</tspan><tspan class="cls-28" x="135.2461" y="0">o</tspan><tspan class="cls-29" x="144.126" y="0">yment</tspan></text><text class="cls-26" transform="translate(422.6539 403.014)"><tspan class="cls-30">R</tspan><tspan x="10" y="0">e</tspan><tspan class="cls-31" x="18.7842" y="0">c</tspan><tspan x="26.7358" y="0">ommended depl</tspan><tspan class="cls-32" x="144.3179" y="0">o</tspan><tspan class="cls-33" x="153.1982" y="0">yment</tspan></text></g></svg>