<svg xmlns="http://www.w3.org/2000/svg" width="738.9154" height="452.6614" viewBox="0 0 738.9154 452.6614"><defs><style>.cls-1,.cls-5{fill:#eef4fb;}.cls-1{stroke:#eef5fb;}.cls-1,.cls-10,.cls-11,.cls-12,.cls-13,.cls-3,.cls-4,.cls-5,.cls-7,.cls-9{stroke-miterlimit:10;}.cls-2,.cls-9{fill:#fff;}.cls-10,.cls-11,.cls-12,.cls-3,.cls-4,.cls-7{fill:none;}.cls-10,.cls-11,.cls-12,.cls-13,.cls-3,.cls-4,.cls-5,.cls-9{stroke:#3553a4;}.cls-4{stroke-dasharray:4 4;}.cls-13,.cls-6{fill:#3553a4;}.cls-7{stroke:#010101;}.cls-25,.cls-8{fill:#010101;}.cls-10{stroke-dasharray:3.9929 3.9929;}.cls-11{stroke-dasharray:4 4;}.cls-12{stroke-dasharray:3.9935 3.9935;}.cls-14{font-size:16px;}.cls-14,.cls-22{fill:#231f20;}.cls-14,.cls-22,.cls-25{font-family:IBMPlexSans, IBM Plex Sans;}.cls-15{letter-spacing:-0.007em;}.cls-16{letter-spacing:-0.005em;}.cls-17{letter-spacing:0em;}.cls-18{letter-spacing:-0.045em;}.cls-19{letter-spacing:-0.004em;}.cls-20{letter-spacing:-0.005em;}.cls-21{letter-spacing:-0.004em;}.cls-22,.cls-25{font-size:14px;}.cls-23{letter-spacing:-0.005em;}.cls-24{letter-spacing:-0.004em;}.cls-26{letter-spacing:-0.007em;}.cls-27{letter-spacing:-0.006em;}</style></defs><g id="Background"><rect class="cls-1" x="419.303" y="0.5" width="319.1124" height="416.3912"/><rect class="cls-2" x="445.0012" y="24.4945" width="240" height="48"/><polyline class="cls-3" points="445.001 26.494 445.001 24.494 447.001 24.494"/><line class="cls-4" x1="451.0012" y1="24.4944" x2="681.0012" y2="24.4944"/><polyline class="cls-3" points="683.001 24.494 685.001 24.494 685.001 26.494"/><line class="cls-4" x1="685.0012" y1="30.4944" x2="685.0012" y2="68.4944"/><polyline class="cls-3" points="685.001 70.494 685.001 72.494 683.001 72.494"/><line class="cls-4" x1="679.0012" y1="72.4944" x2="449.0012" y2="72.4944"/><polyline class="cls-3" points="447.001 72.494 445.001 72.494 445.001 70.494"/><line class="cls-4" x1="445.0012" y1="66.4944" x2="445.0012" y2="28.4944"/><rect class="cls-5" x="443.6788" y="24.4945" width="48" height="48"/><path class="cls-6" d="M558.0038,117.0091l3.9859-3.9857-1.324-1.324L556.68,115.685l-.7425-.7424a.9359.9359,0,0,0-1.3234-.0006l-.0006.0006-3.7452,3.7453a.9357.9357,0,0,0-.0006,1.3233l.0006.0006,2.8089,2.8089a.9359.9359,0,0,0,1.3235.0005l0-.0005,3.7452-3.7452a.9358.9358,0,0,0,.0006-1.3234l-.0006-.0005Zm-3.6648,3.8256-1.4849-1.4849,2.4212-2.4212,1.4849,1.4849Z" transform="translate(-96.4914 -60.3263)"/><path class="cls-6" d="M572.1288,122.1587a5.624,5.624,0,0,1-5.6178-5.6178,5.47,5.47,0,0,1,.1974-1.4484l-8.1121-8.1119a5.4781,5.4781,0,0,1-1.4484.1973,5.5951,5.5951,0,0,1-5.2219-7.6624l.5221-1.3313,3.1015,3.1015a.9582.9582,0,0,0,1.3235,0,.9353.9353,0,0,0,.0012-1.3228l-.0012-.0012-3.1019-3.1029,1.3327-.5216a5.5966,5.5966,0,0,1,7.6619,5.2228,5.47,5.47,0,0,1-.1975,1.4484L570.68,111.12a5.4789,5.4789,0,0,1,1.4484-.197,5.5948,5.5948,0,0,1,5.2219,7.6623l-.5216,1.3314-3.102-3.1016a.9582.9582,0,0,0-1.3235,0,.9355.9355,0,0,0-.0017,1.3229l.0013.0012,3.1015,3.1019-1.3314.5223A5.577,5.577,0,0,1,572.1288,122.1587Zm-13.05-17.3438,9.7946,9.7949-.224.5706a3.7221,3.7221,0,0,0,3.245,5.0984l-.8156-.8156a2.8081,2.8081,0,0,1-.0008-3.9713l.0008-.0009a2.8765,2.8765,0,0,1,3.9725.0005l.8151.8153a3.7225,3.7225,0,0,0-5.0989-3.245l-.5706.2233-9.7937-9.7938.2239-.57a3.7223,3.7223,0,0,0-3.2449-5.0987l.8151.8156a2.8082,2.8082,0,0,1,.0008,3.9714l-.0008.0008a2.8764,2.8764,0,0,1-3.9724-.0005l-.8152-.8153a3.722,3.722,0,0,0,5.0985,3.2449Z" transform="translate(-96.4914 -60.3263)"/><path class="cls-6" d="M576.9251,96.738a2.876,2.876,0,0,0-3.972,0l-7.0039,7.0036,1.324,1.3239,7.0036-7.0035a.959.959,0,0,1,1.324,0,.9382.9382,0,0,1,0,1.3244l-7.0035,7.0036,1.3239,1.324,7.0036-7.0031A2.8119,2.8119,0,0,0,576.9251,96.738Z" transform="translate(-96.4914 -60.3263)"/><line class="cls-7" x1="191.7312" y1="278.9817" x2="335.908" y2="278.9817"/><line class="cls-7" x1="335.908" y1="352.7168" x2="438.6276" y2="352.7168"/><polygon class="cls-8" points="437.169 357.703 445.804 352.717 437.169 347.73 437.169 357.703"/><line class="cls-7" x1="191.7312" y1="150.9677" x2="356.4382" y2="150.9677"/><line class="cls-7" x1="356.4382" y1="44.2382" x2="356.4382" y2="150.9677"/><line class="cls-7" x1="432.8204" y1="44.2657" x2="356.4382" y2="44.238"/><polygon class="cls-8" points="431.363 39.279 439.997 44.268 431.36 49.252 431.363 39.279"/><line class="cls-7" x1="335.908" y1="278.9817" x2="335.908" y2="352.7168"/><line class="cls-7" x1="197.7312" y1="183.8875" x2="435.825" y2="183.8875"/><polygon class="cls-8" points="434.366 188.874 443.001 183.887 434.366 178.901 434.366 188.874"/><line class="cls-7" x1="191.7312" y1="214.0491" x2="378.3573" y2="214.0491"/><line class="cls-7" x1="435.8253" y1="242.0801" x2="378.3573" y2="242.6233"/><polygon class="cls-8" points="434.319 237.108 443.001 242.012 434.414 247.08 434.319 237.108"/><line class="cls-7" x1="378.3573" y1="214.0491" x2="378.3573" y2="242.6233"/><line class="cls-7" x1="191.7312" y1="244.7285" x2="356.4382" y2="244.0026"/><line class="cls-7" x1="435.825" y1="294.2463" x2="356.4382" y2="294.2463"/><polygon class="cls-8" points="434.366 289.26 443.001 294.246 434.366 299.233 434.366 289.26"/><line class="cls-7" x1="356.4382" y1="244.0026" x2="356.4382" y2="294.2463"/><polygon class="cls-9" points="446.026 97.8 712.039 99.505 712.634 387.111 446.026 387.111 446.026 97.8"/><polygon class="cls-2" points="464.265 157.851 647.945 158.021 647.979 206.021 464.299 205.851 464.265 157.851"/><polyline class="cls-3" points="464.267 159.851 464.265 157.851 466.265 157.853"/><line class="cls-10" x1="470.2581" y1="157.857" x2="643.9487" y2="158.0174"/><polyline class="cls-3" points="645.945 158.019 647.945 158.021 647.947 160.021"/><line class="cls-11" x1="647.9494" y1="164.021" x2="647.9763" y2="202.021"/><polyline class="cls-3" points="647.978 204.021 647.979 206.021 645.979 206.019"/><line class="cls-10" x1="641.9862" y1="206.0155" x2="468.2955" y2="205.8551"/><polyline class="cls-3" points="466.299 205.853 464.299 205.851 464.298 203.851"/><line class="cls-11" x1="464.2949" y1="199.8515" x2="464.268" y2="161.8515"/><rect class="cls-2" x="464.2991" y="214.0491" width="183.706" height="48"/><polyline class="cls-3" points="648.005 260.049 648.005 262.049 646.005 262.049"/><line class="cls-12" x1="642.0117" y1="262.0491" x2="468.2959" y2="262.0491"/><polyline class="cls-3" points="466.299 262.049 464.299 262.049 464.299 260.049"/><line class="cls-4" x1="464.2991" y1="256.0491" x2="464.2991" y2="218.0491"/><polyline class="cls-3" points="464.299 216.049 464.299 214.049 466.299 214.049"/><line class="cls-12" x1="470.2926" y1="214.0491" x2="644.0084" y2="214.0491"/><polyline class="cls-3" points="646.005 214.049 648.005 214.049 648.005 216.049"/><line class="cls-4" x1="648.0051" y1="220.0491" x2="648.0051" y2="258.0491"/><rect class="cls-2" x="464.2991" y="270.2463" width="183.706" height="48"/><polyline class="cls-3" points="648.005 316.246 648.005 318.246 646.005 318.246"/><line class="cls-12" x1="642.0117" y1="318.2463" x2="468.2959" y2="318.2463"/><polyline class="cls-3" points="466.299 318.246 464.299 318.246 464.299 316.246"/><line class="cls-4" x1="464.2991" y1="312.2463" x2="464.2991" y2="274.2463"/><polyline class="cls-3" points="464.299 272.246 464.299 270.246 466.299 270.246"/><line class="cls-12" x1="470.2926" y1="270.2463" x2="644.0084" y2="270.2463"/><polyline class="cls-3" points="646.005 270.246 648.005 270.246 648.005 272.246"/><line class="cls-4" x1="648.0051" y1="276.2463" x2="648.0051" y2="314.2463"/><rect class="cls-6" x="446.8039" y="97.3027" width="48" height="48"/><path class="cls-2" d="M562.4653,171.6291l3.42,3.41.58.59h12.83v16h-24v-20h7.17m0-2h-7.17a2,2,0,0,0-2,2v20a2,2,0,0,0,2,2h24a2,2,0,0,0,2-2v-16a2,2,0,0,0-2-2h-12l-3.41-3.41A2,2,0,0,0,562.4653,169.6291Z" transform="translate(-96.4914 -60.3263)"/><rect class="cls-13" x="464.2991" y="214.0491" width="3" height="48"/><rect class="cls-13" x="464.2991" y="270.2463" width="3" height="48"/><rect class="cls-5" x="464.2267" y="157.8519" width="48" height="48"/><path class="cls-6" d="M576.7392,240.1427H587.71v2.0355h-10.971Zm0,5.0889h12.9657v2.0355H576.7392Z" transform="translate(-96.4914 -60.3263)"/><path class="cls-6" d="M596.6864,229.9649H572.75A2.0154,2.0154,0,0,0,570.755,232V252.356a2.0154,2.0154,0,0,0,1.9947,2.0356h23.9367a2.0155,2.0155,0,0,0,1.9948-2.0356V232A2.0154,2.0154,0,0,0,596.6864,229.9649Zm0,2.0355v2.0356H572.75V232ZM572.75,252.356V236.0716h23.9367V252.356Z" transform="translate(-96.4914 -60.3263)"/><polygon class="cls-2" points="465.838 328.632 649.518 328.802 649.552 376.802 465.872 376.632 465.838 328.632"/><polyline class="cls-3" points="465.839 330.632 465.838 328.632 467.838 328.634"/><line class="cls-10" x1="471.8305" y1="328.6376" x2="645.5212" y2="328.7978"/><polyline class="cls-3" points="647.518 328.8 649.518 328.802 649.519 330.802"/><line class="cls-11" x1="649.5218" y1="334.8016" x2="649.5487" y2="372.8016"/><polyline class="cls-3" points="649.55 374.802 649.552 376.802 647.552 376.8"/><line class="cls-10" x1="643.5586" y1="376.796" x2="469.868" y2="376.6357"/><polyline class="cls-3" points="467.872 376.634 465.872 376.632 465.87 374.632"/><line class="cls-11" x1="465.8673" y1="370.632" x2="465.8405" y2="332.632"/><path id="word--cloud" class="cls-8" d="M318.6513,377.4491H185.7351c-49.3688,0-89.2437-42.875-89.2437-95.9584s39.8749-95.9583,89.2437-95.9583a66.9255,66.9255,0,0,1,14.241,1.0208c15.19-20.4166,37.9761-31.6458,61.7111-31.6458,40.8242,0,74.0533,32.6667,78.8,75.5417,28.482,10.2083,48.4194,38.7916,48.4194,71.4583C388.9069,343.7616,357.5767,377.4491,318.6513,377.4491Zm-132.9162-183.75c-45.5712,0-81.6485,39.8125-81.6485,87.7916,0,49,37.0267,87.7917,81.6485,87.7917H318.6513c35.1278,0,62.66-30.625,62.66-67.375,0-29.6042-18.988-56.1458-45.5712-65.3333-.9494,0-1.8988-2.0417-2.8482-3.0625-3.7976-40.8334-34.1785-71.4584-72.1545-71.4584-22.7856,0-43.6725,11.2292-57.9135,30.625-.9494,1.0209-1.8988,2.0417-3.7976,1.0209Z" transform="translate(-96.4914 -60.3263)"/></g><g id="Text"><text class="cls-14" transform="translate(46.6747 448.7415)">Exi<tspan class="cls-15" x="21.4395" y="0">s</tspan><tspan x="29.1201" y="0">ting cloud depl</tspan><tspan class="cls-16" x="135.2461" y="0">o</tspan><tspan class="cls-17" x="144.126" y="0">yment</tspan></text><text class="cls-14" transform="translate(434.6426 448.7416)"><tspan class="cls-18">T</tspan><tspan class="cls-19" x="8.4316" y="0">r</tspan><tspan x="14.2397" y="0">an</tspan><tspan class="cls-20" x="31.8716" y="0">s</tspan><tspan class="cls-21" x="39.584" y="0">f</tspan><tspan x="44.7036" y="0">ormed cloud depl</tspan><tspan class="cls-20" x="170.541" y="0">o</tspan><tspan x="179.4214" y="0">yment</tspan></text><text class="cls-22" transform="translate(110.5545 155.1913)">Net<tspan class="cls-23" x="22.4976" y="0">w</tspan><tspan x="33.1797" y="0">orking</tspan></text><text class="cls-22" transform="translate(109.9807 187.4446)">Au<tspan class="cls-24" x="16.9258" y="0">t</tspan><tspan x="21.7837" y="0">omation</tspan></text><text class="cls-25" transform="translate(502.8819 126.0052)">Business unit account group</text><text class="cls-25" transform="translate(517.9664 188.2937)">BU admin account</text><text class="cls-25" transform="translate(480.4336 242.4554)">Workload account</text><text class="cls-25" transform="translate(480.4336 298.6526)">Workload account</text><text class="cls-22" transform="translate(517.9668 358.7168)">Other <tspan class="cls-26" x="38.9053" y="0">s</tspan><tspan x="45.6255" y="0">tuff</tspan></text><text class="cls-22" transform="translate(115.1189 219.6985)">A<tspan class="cls-27" x="8.9736" y="0">cc</tspan><tspan x="22.8896" y="0">ount 1</tspan></text><text class="cls-22" transform="translate(115.1188 251.9521)">A<tspan class="cls-27" x="8.9736" y="0">cc</tspan><tspan x="22.8896" y="0">ount 2</tspan></text><text class="cls-22" transform="translate(112.9629 284.2053)">Other <tspan class="cls-26" x="38.9053" y="0">s</tspan><tspan x="45.6255" y="0">tuff</tspan></text><text class="cls-25" transform="translate(497.4192 44.9007)">Network and services <tspan x="0" y="18">hub account</tspan></text></g></svg>